<svg width="1002" height="534" viewBox="0 0 1002 534" fill="none" xmlns="http://www.w3.org/2000/svg">
<path d="M738.548 8.26471C738.548 9.51547 737.53 10.5294 736.274 10.5294C735.018 10.5294 734 9.51547 734 8.26471C734 7.01394 735.018 6 736.274 6C737.53 6 738.548 7.01394 738.548 8.26471Z" fill="white"/>
<path d="M752.194 8.26471C752.194 9.51547 751.175 10.5294 749.919 10.5294C748.663 10.5294 747.645 9.51547 747.645 8.26471C747.645 7.01394 748.663 6 749.919 6C751.175 6 752.194 7.01394 752.194 8.26471Z" fill="white"/>
<path d="M765.839 8.26471C765.839 9.51547 764.821 10.5294 763.565 10.5294C762.309 10.5294 761.29 9.51547 761.29 8.26471C761.29 7.01394 762.309 6 763.565 6C764.821 6 765.839 7.01394 765.839 8.26471Z" fill="white"/>
<path d="M779.484 8.26471C779.484 9.51547 778.466 10.5294 777.21 10.5294C775.954 10.5294 774.935 9.51547 774.935 8.26471C774.935 7.01394 775.954 6 777.21 6C778.466 6 779.484 7.01394 779.484 8.26471Z" fill="white"/>
<path d="M793.129 8.26471C793.129 9.51547 792.111 10.5294 790.855 10.5294C789.599 10.5294 788.581 9.51547 788.581 8.26471C788.581 7.01394 789.599 6 790.855 6C792.111 6 793.129 7.01394 793.129 8.26471Z" fill="white"/>
<path d="M806.774 8.26471C806.774 9.51547 805.756 10.5294 804.5 10.5294C803.244 10.5294 802.226 9.51547 802.226 8.26471C802.226 7.01394 803.244 6 804.5 6C805.756 6 806.774 7.01394 806.774 8.26471Z" fill="white"/>
<path d="M820.419 8.26471C820.419 9.51547 819.401 10.5294 818.145 10.5294C816.889 10.5294 815.871 9.51547 815.871 8.26471C815.871 7.01394 816.889 6 818.145 6C819.401 6 820.419 7.01394 820.419 8.26471Z" fill="white"/>
<path d="M834.065 8.26471C834.065 9.51547 833.046 10.5294 831.79 10.5294C830.534 10.5294 829.516 9.51547 829.516 8.26471C829.516 7.01394 830.534 6 831.79 6C833.046 6 834.065 7.01394 834.065 8.26471Z" fill="white"/>
<path d="M847.71 8.26471C847.71 9.51547 846.691 10.5294 845.435 10.5294C844.179 10.5294 843.161 9.51547 843.161 8.26471C843.161 7.01394 844.179 6 845.435 6C846.691 6 847.71 7.01394 847.71 8.26471Z" fill="white"/>
<path d="M861.355 8.26471C861.355 9.51547 860.337 10.5294 859.081 10.5294C857.825 10.5294 856.806 9.51547 856.806 8.26471C856.806 7.01394 857.825 6 859.081 6C860.337 6 861.355 7.01394 861.355 8.26471Z" fill="white"/>
<path d="M875 8.26471C875 9.51547 873.982 10.5294 872.726 10.5294C871.47 10.5294 870.452 9.51547 870.452 8.26471C870.452 7.01394 871.47 6 872.726 6C873.982 6 875 7.01394 875 8.26471Z" fill="white"/>
<path d="M738.548 21.8529C738.548 23.1037 737.53 24.1176 736.274 24.1176C735.018 24.1176 734 23.1037 734 21.8529C734 20.6022 735.018 19.5882 736.274 19.5882C737.53 19.5882 738.548 20.6022 738.548 21.8529Z" fill="white"/>
<path d="M752.194 21.8529C752.194 23.1037 751.175 24.1176 749.919 24.1176C748.663 24.1176 747.645 23.1037 747.645 21.8529C747.645 20.6022 748.663 19.5882 749.919 19.5882C751.175 19.5882 752.194 20.6022 752.194 21.8529Z" fill="white"/>
<path d="M765.839 21.8529C765.839 23.1037 764.821 24.1176 763.565 24.1176C762.309 24.1176 761.29 23.1037 761.29 21.8529C761.29 20.6022 762.309 19.5882 763.565 19.5882C764.821 19.5882 765.839 20.6022 765.839 21.8529Z" fill="white"/>
<path d="M779.484 21.8529C779.484 23.1037 778.466 24.1176 777.21 24.1176C775.954 24.1176 774.935 23.1037 774.935 21.8529C774.935 20.6022 775.954 19.5882 777.21 19.5882C778.466 19.5882 779.484 20.6022 779.484 21.8529Z" fill="white"/>
<path d="M793.129 21.8529C793.129 23.1037 792.111 24.1176 790.855 24.1176C789.599 24.1176 788.581 23.1037 788.581 21.8529C788.581 20.6022 789.599 19.5882 790.855 19.5882C792.111 19.5882 793.129 20.6022 793.129 21.8529Z" fill="white"/>
<path d="M806.774 21.8529C806.774 23.1037 805.756 24.1176 804.5 24.1176C803.244 24.1176 802.226 23.1037 802.226 21.8529C802.226 20.6022 803.244 19.5882 804.5 19.5882C805.756 19.5882 806.774 20.6022 806.774 21.8529Z" fill="white"/>
<path d="M820.419 21.8529C820.419 23.1037 819.401 24.1176 818.145 24.1176C816.889 24.1176 815.871 23.1037 815.871 21.8529C815.871 20.6022 816.889 19.5882 818.145 19.5882C819.401 19.5882 820.419 20.6022 820.419 21.8529Z" fill="white"/>
<path d="M834.065 21.8529C834.065 23.1037 833.046 24.1176 831.79 24.1176C830.534 24.1176 829.516 23.1037 829.516 21.8529C829.516 20.6022 830.534 19.5882 831.79 19.5882C833.046 19.5882 834.065 20.6022 834.065 21.8529Z" fill="white"/>
<path d="M847.71 21.8529C847.71 23.1037 846.691 24.1176 845.435 24.1176C844.179 24.1176 843.161 23.1037 843.161 21.8529C843.161 20.6022 844.179 19.5882 845.435 19.5882C846.691 19.5882 847.71 20.6022 847.71 21.8529Z" fill="white"/>
<path d="M861.355 21.8529C861.355 23.1037 860.337 24.1176 859.081 24.1176C857.825 24.1176 856.806 23.1037 856.806 21.8529C856.806 20.6022 857.825 19.5882 859.081 19.5882C860.337 19.5882 861.355 20.6022 861.355 21.8529Z" fill="white"/>
<path d="M875 21.8529C875 23.1037 873.982 24.1176 872.726 24.1176C871.47 24.1176 870.452 23.1037 870.452 21.8529C870.452 20.6022 871.47 19.5882 872.726 19.5882C873.982 19.5882 875 20.6022 875 21.8529Z" fill="white"/>
<path d="M738.548 35.4412C738.548 36.6919 737.53 37.7059 736.274 37.7059C735.018 37.7059 734 36.6919 734 35.4412C734 34.1904 735.018 33.1765 736.274 33.1765C737.53 33.1765 738.548 34.1904 738.548 35.4412Z" fill="white"/>
<path d="M752.194 35.4412C752.194 36.6919 751.175 37.7059 749.919 37.7059C748.663 37.7059 747.645 36.6919 747.645 35.4412C747.645 34.1904 748.663 33.1765 749.919 33.1765C751.175 33.1765 752.194 34.1904 752.194 35.4412Z" fill="white"/>
<path d="M765.839 35.4412C765.839 36.6919 764.821 37.7059 763.565 37.7059C762.309 37.7059 761.29 36.6919 761.29 35.4412C761.29 34.1904 762.309 33.1765 763.565 33.1765C764.821 33.1765 765.839 34.1904 765.839 35.4412Z" fill="white"/>
<path d="M779.484 35.4412C779.484 36.6919 778.466 37.7059 777.21 37.7059C775.954 37.7059 774.935 36.6919 774.935 35.4412C774.935 34.1904 775.954 33.1765 777.21 33.1765C778.466 33.1765 779.484 34.1904 779.484 35.4412Z" fill="white"/>
<path d="M793.129 35.4412C793.129 36.6919 792.111 37.7059 790.855 37.7059C789.599 37.7059 788.581 36.6919 788.581 35.4412C788.581 34.1904 789.599 33.1765 790.855 33.1765C792.111 33.1765 793.129 34.1904 793.129 35.4412Z" fill="white"/>
<path d="M806.774 35.4412C806.774 36.6919 805.756 37.7059 804.5 37.7059C803.244 37.7059 802.226 36.6919 802.226 35.4412C802.226 34.1904 803.244 33.1765 804.5 33.1765C805.756 33.1765 806.774 34.1904 806.774 35.4412Z" fill="white"/>
<path d="M820.419 35.4412C820.419 36.6919 819.401 37.7059 818.145 37.7059C816.889 37.7059 815.871 36.6919 815.871 35.4412C815.871 34.1904 816.889 33.1765 818.145 33.1765C819.401 33.1765 820.419 34.1904 820.419 35.4412Z" fill="white"/>
<path d="M834.065 35.4412C834.065 36.6919 833.046 37.7059 831.79 37.7059C830.534 37.7059 829.516 36.6919 829.516 35.4412C829.516 34.1904 830.534 33.1765 831.79 33.1765C833.046 33.1765 834.065 34.1904 834.065 35.4412Z" fill="white"/>
<path d="M847.71 35.4412C847.71 36.6919 846.691 37.7059 845.435 37.7059C844.179 37.7059 843.161 36.6919 843.161 35.4412C843.161 34.1904 844.179 33.1765 845.435 33.1765C846.691 33.1765 847.71 34.1904 847.71 35.4412Z" fill="white"/>
<path d="M861.355 35.4412C861.355 36.6919 860.337 37.7059 859.081 37.7059C857.825 37.7059 856.806 36.6919 856.806 35.4412C856.806 34.1904 857.825 33.1765 859.081 33.1765C860.337 33.1765 861.355 34.1904 861.355 35.4412Z" fill="white"/>
<path d="M875 35.4412C875 36.6919 873.982 37.7059 872.726 37.7059C871.47 37.7059 870.452 36.6919 870.452 35.4412C870.452 34.1904 871.47 33.1765 872.726 33.1765C873.982 33.1765 875 34.1904 875 35.4412Z" fill="white"/>
<path d="M738.548 49.0294C738.548 50.2802 737.53 51.2941 736.274 51.2941C735.018 51.2941 734 50.2802 734 49.0294C734 47.7786 735.018 46.7647 736.274 46.7647C737.53 46.7647 738.548 47.7786 738.548 49.0294Z" fill="white"/>
<path d="M752.194 49.0294C752.194 50.2802 751.175 51.2941 749.919 51.2941C748.663 51.2941 747.645 50.2802 747.645 49.0294C747.645 47.7786 748.663 46.7647 749.919 46.7647C751.175 46.7647 752.194 47.7786 752.194 49.0294Z" fill="white"/>
<path d="M765.839 49.0294C765.839 50.2802 764.821 51.2941 763.565 51.2941C762.309 51.2941 761.29 50.2802 761.29 49.0294C761.29 47.7786 762.309 46.7647 763.565 46.7647C764.821 46.7647 765.839 47.7786 765.839 49.0294Z" fill="white"/>
<path d="M779.484 49.0294C779.484 50.2802 778.466 51.2941 777.21 51.2941C775.954 51.2941 774.935 50.2802 774.935 49.0294C774.935 47.7786 775.954 46.7647 777.21 46.7647C778.466 46.7647 779.484 47.7786 779.484 49.0294Z" fill="white"/>
<path d="M793.129 49.0294C793.129 50.2802 792.111 51.2941 790.855 51.2941C789.599 51.2941 788.581 50.2802 788.581 49.0294C788.581 47.7786 789.599 46.7647 790.855 46.7647C792.111 46.7647 793.129 47.7786 793.129 49.0294Z" fill="white"/>
<path d="M806.774 49.0294C806.774 50.2802 805.756 51.2941 804.5 51.2941C803.244 51.2941 802.226 50.2802 802.226 49.0294C802.226 47.7786 803.244 46.7647 804.5 46.7647C805.756 46.7647 806.774 47.7786 806.774 49.0294Z" fill="white"/>
<path d="M820.419 49.0294C820.419 50.2802 819.401 51.2941 818.145 51.2941C816.889 51.2941 815.871 50.2802 815.871 49.0294C815.871 47.7786 816.889 46.7647 818.145 46.7647C819.401 46.7647 820.419 47.7786 820.419 49.0294Z" fill="white"/>
<path d="M834.065 49.0294C834.065 50.2802 833.046 51.2941 831.79 51.2941C830.534 51.2941 829.516 50.2802 829.516 49.0294C829.516 47.7786 830.534 46.7647 831.79 46.7647C833.046 46.7647 834.065 47.7786 834.065 49.0294Z" fill="white"/>
<path d="M847.71 49.0294C847.71 50.2802 846.691 51.2941 845.435 51.2941C844.179 51.2941 843.161 50.2802 843.161 49.0294C843.161 47.7786 844.179 46.7647 845.435 46.7647C846.691 46.7647 847.71 47.7786 847.71 49.0294Z" fill="white"/>
<path d="M861.355 49.0294C861.355 50.2802 860.337 51.2941 859.081 51.2941C857.825 51.2941 856.806 50.2802 856.806 49.0294C856.806 47.7786 857.825 46.7647 859.081 46.7647C860.337 46.7647 861.355 47.7786 861.355 49.0294Z" fill="white"/>
<path d="M875 49.0294C875 50.2802 873.982 51.2941 872.726 51.2941C871.47 51.2941 870.452 50.2802 870.452 49.0294C870.452 47.7786 871.47 46.7647 872.726 46.7647C873.982 46.7647 875 47.7786 875 49.0294Z" fill="white"/>
<path d="M738.548 62.6176C738.548 63.8684 737.53 64.8824 736.274 64.8824C735.018 64.8824 734 63.8684 734 62.6176C734 61.3669 735.018 60.3529 736.274 60.3529C737.53 60.3529 738.548 61.3669 738.548 62.6176Z" fill="white"/>
<path d="M752.194 62.6176C752.194 63.8684 751.175 64.8824 749.919 64.8824C748.663 64.8824 747.645 63.8684 747.645 62.6176C747.645 61.3669 748.663 60.3529 749.919 60.3529C751.175 60.3529 752.194 61.3669 752.194 62.6176Z" fill="white"/>
<path d="M765.839 62.6176C765.839 63.8684 764.821 64.8824 763.565 64.8824C762.309 64.8824 761.29 63.8684 761.29 62.6176C761.29 61.3669 762.309 60.3529 763.565 60.3529C764.821 60.3529 765.839 61.3669 765.839 62.6176Z" fill="white"/>
<path d="M779.484 62.6176C779.484 63.8684 778.466 64.8824 777.21 64.8824C775.954 64.8824 774.935 63.8684 774.935 62.6176C774.935 61.3669 775.954 60.3529 777.21 60.3529C778.466 60.3529 779.484 61.3669 779.484 62.6176Z" fill="white"/>
<path d="M793.129 62.6176C793.129 63.8684 792.111 64.8824 790.855 64.8824C789.599 64.8824 788.581 63.8684 788.581 62.6176C788.581 61.3669 789.599 60.3529 790.855 60.3529C792.111 60.3529 793.129 61.3669 793.129 62.6176Z" fill="white"/>
<path d="M806.774 62.6176C806.774 63.8684 805.756 64.8824 804.5 64.8824C803.244 64.8824 802.226 63.8684 802.226 62.6176C802.226 61.3669 803.244 60.3529 804.5 60.3529C805.756 60.3529 806.774 61.3669 806.774 62.6176Z" fill="white"/>
<path d="M820.419 62.6176C820.419 63.8684 819.401 64.8824 818.145 64.8824C816.889 64.8824 815.871 63.8684 815.871 62.6176C815.871 61.3669 816.889 60.3529 818.145 60.3529C819.401 60.3529 820.419 61.3669 820.419 62.6176Z" fill="white"/>
<path d="M834.065 62.6176C834.065 63.8684 833.046 64.8824 831.79 64.8824C830.534 64.8824 829.516 63.8684 829.516 62.6176C829.516 61.3669 830.534 60.3529 831.79 60.3529C833.046 60.3529 834.065 61.3669 834.065 62.6176Z" fill="white"/>
<path d="M847.71 62.6176C847.71 63.8684 846.691 64.8824 845.435 64.8824C844.179 64.8824 843.161 63.8684 843.161 62.6176C843.161 61.3669 844.179 60.3529 845.435 60.3529C846.691 60.3529 847.71 61.3669 847.71 62.6176Z" fill="white"/>
<path d="M861.355 62.6176C861.355 63.8684 860.337 64.8824 859.081 64.8824C857.825 64.8824 856.806 63.8684 856.806 62.6176C856.806 61.3669 857.825 60.3529 859.081 60.3529C860.337 60.3529 861.355 61.3669 861.355 62.6176Z" fill="white"/>
<path d="M875 62.6176C875 63.8684 873.982 64.8824 872.726 64.8824C871.47 64.8824 870.452 63.8684 870.452 62.6176C870.452 61.3669 871.47 60.3529 872.726 60.3529C873.982 60.3529 875 61.3669 875 62.6176Z" fill="white"/>
<path d="M738.548 76.2059C738.548 77.4566 737.53 78.4706 736.274 78.4706C735.018 78.4706 734 77.4566 734 76.2059C734 74.9551 735.018 73.9412 736.274 73.9412C737.53 73.9412 738.548 74.9551 738.548 76.2059Z" fill="white"/>
<path d="M752.194 76.2059C752.194 77.4566 751.175 78.4706 749.919 78.4706C748.663 78.4706 747.645 77.4566 747.645 76.2059C747.645 74.9551 748.663 73.9412 749.919 73.9412C751.175 73.9412 752.194 74.9551 752.194 76.2059Z" fill="white"/>
<path d="M765.839 76.2059C765.839 77.4566 764.821 78.4706 763.565 78.4706C762.309 78.4706 761.29 77.4566 761.29 76.2059C761.29 74.9551 762.309 73.9412 763.565 73.9412C764.821 73.9412 765.839 74.9551 765.839 76.2059Z" fill="white"/>
<path d="M779.484 76.2059C779.484 77.4566 778.466 78.4706 777.21 78.4706C775.954 78.4706 774.935 77.4566 774.935 76.2059C774.935 74.9551 775.954 73.9412 777.21 73.9412C778.466 73.9412 779.484 74.9551 779.484 76.2059Z" fill="white"/>
<path d="M793.129 76.2059C793.129 77.4566 792.111 78.4706 790.855 78.4706C789.599 78.4706 788.581 77.4566 788.581 76.2059C788.581 74.9551 789.599 73.9412 790.855 73.9412C792.111 73.9412 793.129 74.9551 793.129 76.2059Z" fill="white"/>
<path d="M806.774 76.2059C806.774 77.4566 805.756 78.4706 804.5 78.4706C803.244 78.4706 802.226 77.4566 802.226 76.2059C802.226 74.9551 803.244 73.9412 804.5 73.9412C805.756 73.9412 806.774 74.9551 806.774 76.2059Z" fill="white"/>
<path d="M820.419 76.2059C820.419 77.4566 819.401 78.4706 818.145 78.4706C816.889 78.4706 815.871 77.4566 815.871 76.2059C815.871 74.9551 816.889 73.9412 818.145 73.9412C819.401 73.9412 820.419 74.9551 820.419 76.2059Z" fill="white"/>
<path d="M834.065 76.2059C834.065 77.4566 833.046 78.4706 831.79 78.4706C830.534 78.4706 829.516 77.4566 829.516 76.2059C829.516 74.9551 830.534 73.9412 831.79 73.9412C833.046 73.9412 834.065 74.9551 834.065 76.2059Z" fill="white"/>
<path d="M847.71 76.2059C847.71 77.4566 846.691 78.4706 845.435 78.4706C844.179 78.4706 843.161 77.4566 843.161 76.2059C843.161 74.9551 844.179 73.9412 845.435 73.9412C846.691 73.9412 847.71 74.9551 847.71 76.2059Z" fill="white"/>
<path d="M861.355 76.2059C861.355 77.4566 860.337 78.4706 859.081 78.4706C857.825 78.4706 856.806 77.4566 856.806 76.2059C856.806 74.9551 857.825 73.9412 859.081 73.9412C860.337 73.9412 861.355 74.9551 861.355 76.2059Z" fill="white"/>
<path d="M875 76.2059C875 77.4566 873.982 78.4706 872.726 78.4706C871.47 78.4706 870.452 77.4566 870.452 76.2059C870.452 74.9551 871.47 73.9412 872.726 73.9412C873.982 73.9412 875 74.9551 875 76.2059Z" fill="white"/>
<path d="M738.548 89.7941C738.548 91.0449 737.53 92.0588 736.274 92.0588C735.018 92.0588 734 91.0449 734 89.7941C734 88.5434 735.018 87.5294 736.274 87.5294C737.53 87.5294 738.548 88.5434 738.548 89.7941Z" fill="white"/>
<path d="M752.194 89.7941C752.194 91.0449 751.175 92.0588 749.919 92.0588C748.663 92.0588 747.645 91.0449 747.645 89.7941C747.645 88.5434 748.663 87.5294 749.919 87.5294C751.175 87.5294 752.194 88.5434 752.194 89.7941Z" fill="white"/>
<path d="M765.839 89.7941C765.839 91.0449 764.821 92.0588 763.565 92.0588C762.309 92.0588 761.29 91.0449 761.29 89.7941C761.29 88.5434 762.309 87.5294 763.565 87.5294C764.821 87.5294 765.839 88.5434 765.839 89.7941Z" fill="white"/>
<path d="M779.484 89.7941C779.484 91.0449 778.466 92.0588 777.21 92.0588C775.954 92.0588 774.935 91.0449 774.935 89.7941C774.935 88.5434 775.954 87.5294 777.21 87.5294C778.466 87.5294 779.484 88.5434 779.484 89.7941Z" fill="white"/>
<path d="M793.129 89.7941C793.129 91.0449 792.111 92.0588 790.855 92.0588C789.599 92.0588 788.581 91.0449 788.581 89.7941C788.581 88.5434 789.599 87.5294 790.855 87.5294C792.111 87.5294 793.129 88.5434 793.129 89.7941Z" fill="white"/>
<path d="M806.774 89.7941C806.774 91.0449 805.756 92.0588 804.5 92.0588C803.244 92.0588 802.226 91.0449 802.226 89.7941C802.226 88.5434 803.244 87.5294 804.5 87.5294C805.756 87.5294 806.774 88.5434 806.774 89.7941Z" fill="white"/>
<path d="M820.419 89.7941C820.419 91.0449 819.401 92.0588 818.145 92.0588C816.889 92.0588 815.871 91.0449 815.871 89.7941C815.871 88.5434 816.889 87.5294 818.145 87.5294C819.401 87.5294 820.419 88.5434 820.419 89.7941Z" fill="white"/>
<path d="M834.065 89.7941C834.065 91.0449 833.046 92.0588 831.79 92.0588C830.534 92.0588 829.516 91.0449 829.516 89.7941C829.516 88.5434 830.534 87.5294 831.79 87.5294C833.046 87.5294 834.065 88.5434 834.065 89.7941Z" fill="white"/>
<path d="M847.71 89.7941C847.71 91.0449 846.691 92.0588 845.435 92.0588C844.179 92.0588 843.161 91.0449 843.161 89.7941C843.161 88.5434 844.179 87.5294 845.435 87.5294C846.691 87.5294 847.71 88.5434 847.71 89.7941Z" fill="white"/>
<path d="M861.355 89.7941C861.355 91.0449 860.337 92.0588 859.081 92.0588C857.825 92.0588 856.806 91.0449 856.806 89.7941C856.806 88.5434 857.825 87.5294 859.081 87.5294C860.337 87.5294 861.355 88.5434 861.355 89.7941Z" fill="white"/>
<path d="M875 89.7941C875 91.0449 873.982 92.0588 872.726 92.0588C871.47 92.0588 870.452 91.0449 870.452 89.7941C870.452 88.5434 871.47 87.5294 872.726 87.5294C873.982 87.5294 875 88.5434 875 89.7941Z" fill="white"/>
<path d="M738.548 103.382C738.548 104.633 737.53 105.647 736.274 105.647C735.018 105.647 734 104.633 734 103.382C734 102.132 735.018 101.118 736.274 101.118C737.53 101.118 738.548 102.132 738.548 103.382Z" fill="white"/>
<path d="M752.194 103.382C752.194 104.633 751.175 105.647 749.919 105.647C748.663 105.647 747.645 104.633 747.645 103.382C747.645 102.132 748.663 101.118 749.919 101.118C751.175 101.118 752.194 102.132 752.194 103.382Z" fill="white"/>
<path d="M765.839 103.382C765.839 104.633 764.821 105.647 763.565 105.647C762.309 105.647 761.29 104.633 761.29 103.382C761.29 102.132 762.309 101.118 763.565 101.118C764.821 101.118 765.839 102.132 765.839 103.382Z" fill="white"/>
<path d="M779.484 103.382C779.484 104.633 778.466 105.647 777.21 105.647C775.954 105.647 774.935 104.633 774.935 103.382C774.935 102.132 775.954 101.118 777.21 101.118C778.466 101.118 779.484 102.132 779.484 103.382Z" fill="white"/>
<path d="M793.129 103.382C793.129 104.633 792.111 105.647 790.855 105.647C789.599 105.647 788.581 104.633 788.581 103.382C788.581 102.132 789.599 101.118 790.855 101.118C792.111 101.118 793.129 102.132 793.129 103.382Z" fill="white"/>
<path d="M806.774 103.382C806.774 104.633 805.756 105.647 804.5 105.647C803.244 105.647 802.226 104.633 802.226 103.382C802.226 102.132 803.244 101.118 804.5 101.118C805.756 101.118 806.774 102.132 806.774 103.382Z" fill="white"/>
<path d="M820.419 103.382C820.419 104.633 819.401 105.647 818.145 105.647C816.889 105.647 815.871 104.633 815.871 103.382C815.871 102.132 816.889 101.118 818.145 101.118C819.401 101.118 820.419 102.132 820.419 103.382Z" fill="white"/>
<path d="M834.065 103.382C834.065 104.633 833.046 105.647 831.79 105.647C830.534 105.647 829.516 104.633 829.516 103.382C829.516 102.132 830.534 101.118 831.79 101.118C833.046 101.118 834.065 102.132 834.065 103.382Z" fill="white"/>
<path d="M847.71 103.382C847.71 104.633 846.691 105.647 845.435 105.647C844.179 105.647 843.161 104.633 843.161 103.382C843.161 102.132 844.179 101.118 845.435 101.118C846.691 101.118 847.71 102.132 847.71 103.382Z" fill="white"/>
<path d="M861.355 103.382C861.355 104.633 860.337 105.647 859.081 105.647C857.825 105.647 856.806 104.633 856.806 103.382C856.806 102.132 857.825 101.118 859.081 101.118C860.337 101.118 861.355 102.132 861.355 103.382Z" fill="white"/>
<path d="M875 103.382C875 104.633 873.982 105.647 872.726 105.647C871.47 105.647 870.452 104.633 870.452 103.382C870.452 102.132 871.47 101.118 872.726 101.118C873.982 101.118 875 102.132 875 103.382Z" fill="white"/>
<path d="M738.548 116.971C738.548 118.221 737.53 119.235 736.274 119.235C735.018 119.235 734 118.221 734 116.971C734 115.72 735.018 114.706 736.274 114.706C737.53 114.706 738.548 115.72 738.548 116.971Z" fill="white"/>
<path d="M752.194 116.971C752.194 118.221 751.175 119.235 749.919 119.235C748.663 119.235 747.645 118.221 747.645 116.971C747.645 115.72 748.663 114.706 749.919 114.706C751.175 114.706 752.194 115.72 752.194 116.971Z" fill="white"/>
<path d="M765.839 116.971C765.839 118.221 764.821 119.235 763.565 119.235C762.309 119.235 761.29 118.221 761.29 116.971C761.29 115.72 762.309 114.706 763.565 114.706C764.821 114.706 765.839 115.72 765.839 116.971Z" fill="white"/>
<path d="M779.484 116.971C779.484 118.221 778.466 119.235 777.21 119.235C775.954 119.235 774.935 118.221 774.935 116.971C774.935 115.72 775.954 114.706 777.21 114.706C778.466 114.706 779.484 115.72 779.484 116.971Z" fill="white"/>
<path d="M793.129 116.971C793.129 118.221 792.111 119.235 790.855 119.235C789.599 119.235 788.581 118.221 788.581 116.971C788.581 115.72 789.599 114.706 790.855 114.706C792.111 114.706 793.129 115.72 793.129 116.971Z" fill="white"/>
<path d="M806.774 116.971C806.774 118.221 805.756 119.235 804.5 119.235C803.244 119.235 802.226 118.221 802.226 116.971C802.226 115.72 803.244 114.706 804.5 114.706C805.756 114.706 806.774 115.72 806.774 116.971Z" fill="white"/>
<path d="M820.419 116.971C820.419 118.221 819.401 119.235 818.145 119.235C816.889 119.235 815.871 118.221 815.871 116.971C815.871 115.72 816.889 114.706 818.145 114.706C819.401 114.706 820.419 115.72 820.419 116.971Z" fill="white"/>
<path d="M834.065 116.971C834.065 118.221 833.046 119.235 831.79 119.235C830.534 119.235 829.516 118.221 829.516 116.971C829.516 115.72 830.534 114.706 831.79 114.706C833.046 114.706 834.065 115.72 834.065 116.971Z" fill="white"/>
<path d="M847.71 116.971C847.71 118.221 846.691 119.235 845.435 119.235C844.179 119.235 843.161 118.221 843.161 116.971C843.161 115.72 844.179 114.706 845.435 114.706C846.691 114.706 847.71 115.72 847.71 116.971Z" fill="white"/>
<path d="M861.355 116.971C861.355 118.221 860.337 119.235 859.081 119.235C857.825 119.235 856.806 118.221 856.806 116.971C856.806 115.72 857.825 114.706 859.081 114.706C860.337 114.706 861.355 115.72 861.355 116.971Z" fill="white"/>
<path d="M875 116.971C875 118.221 873.982 119.235 872.726 119.235C871.47 119.235 870.452 118.221 870.452 116.971C870.452 115.72 871.47 114.706 872.726 114.706C873.982 114.706 875 115.72 875 116.971Z" fill="white"/>
<path d="M738.548 130.559C738.548 131.81 737.53 132.824 736.274 132.824C735.018 132.824 734 131.81 734 130.559C734 129.308 735.018 128.294 736.274 128.294C737.53 128.294 738.548 129.308 738.548 130.559Z" fill="white"/>
<path d="M752.194 130.559C752.194 131.81 751.175 132.824 749.919 132.824C748.663 132.824 747.645 131.81 747.645 130.559C747.645 129.308 748.663 128.294 749.919 128.294C751.175 128.294 752.194 129.308 752.194 130.559Z" fill="white"/>
<path d="M765.839 130.559C765.839 131.81 764.821 132.824 763.565 132.824C762.309 132.824 761.29 131.81 761.29 130.559C761.29 129.308 762.309 128.294 763.565 128.294C764.821 128.294 765.839 129.308 765.839 130.559Z" fill="white"/>
<path d="M779.484 130.559C779.484 131.81 778.466 132.824 777.21 132.824C775.954 132.824 774.935 131.81 774.935 130.559C774.935 129.308 775.954 128.294 777.21 128.294C778.466 128.294 779.484 129.308 779.484 130.559Z" fill="white"/>
<path d="M793.129 130.559C793.129 131.81 792.111 132.824 790.855 132.824C789.599 132.824 788.581 131.81 788.581 130.559C788.581 129.308 789.599 128.294 790.855 128.294C792.111 128.294 793.129 129.308 793.129 130.559Z" fill="white"/>
<path d="M806.774 130.559C806.774 131.81 805.756 132.824 804.5 132.824C803.244 132.824 802.226 131.81 802.226 130.559C802.226 129.308 803.244 128.294 804.5 128.294C805.756 128.294 806.774 129.308 806.774 130.559Z" fill="white"/>
<path d="M820.419 130.559C820.419 131.81 819.401 132.824 818.145 132.824C816.889 132.824 815.871 131.81 815.871 130.559C815.871 129.308 816.889 128.294 818.145 128.294C819.401 128.294 820.419 129.308 820.419 130.559Z" fill="white"/>
<path d="M834.065 130.559C834.065 131.81 833.046 132.824 831.79 132.824C830.534 132.824 829.516 131.81 829.516 130.559C829.516 129.308 830.534 128.294 831.79 128.294C833.046 128.294 834.065 129.308 834.065 130.559Z" fill="white"/>
<path d="M847.71 130.559C847.71 131.81 846.691 132.824 845.435 132.824C844.179 132.824 843.161 131.81 843.161 130.559C843.161 129.308 844.179 128.294 845.435 128.294C846.691 128.294 847.71 129.308 847.71 130.559Z" fill="white"/>
<path d="M861.355 130.559C861.355 131.81 860.337 132.824 859.081 132.824C857.825 132.824 856.806 131.81 856.806 130.559C856.806 129.308 857.825 128.294 859.081 128.294C860.337 128.294 861.355 129.308 861.355 130.559Z" fill="white"/>
<path d="M875 130.559C875 131.81 873.982 132.824 872.726 132.824C871.47 132.824 870.452 131.81 870.452 130.559C870.452 129.308 871.47 128.294 872.726 128.294C873.982 128.294 875 129.308 875 130.559Z" fill="white"/>
<path d="M738.548 144.147C738.548 145.398 737.53 146.412 736.274 146.412C735.018 146.412 734 145.398 734 144.147C734 142.896 735.018 141.882 736.274 141.882C737.53 141.882 738.548 142.896 738.548 144.147Z" fill="white"/>
<path d="M752.194 144.147C752.194 145.398 751.175 146.412 749.919 146.412C748.663 146.412 747.645 145.398 747.645 144.147C747.645 142.896 748.663 141.882 749.919 141.882C751.175 141.882 752.194 142.896 752.194 144.147Z" fill="white"/>
<path d="M765.839 144.147C765.839 145.398 764.821 146.412 763.565 146.412C762.309 146.412 761.29 145.398 761.29 144.147C761.29 142.896 762.309 141.882 763.565 141.882C764.821 141.882 765.839 142.896 765.839 144.147Z" fill="white"/>
<path d="M779.484 144.147C779.484 145.398 778.466 146.412 777.21 146.412C775.954 146.412 774.935 145.398 774.935 144.147C774.935 142.896 775.954 141.882 777.21 141.882C778.466 141.882 779.484 142.896 779.484 144.147Z" fill="white"/>
<path d="M793.129 144.147C793.129 145.398 792.111 146.412 790.855 146.412C789.599 146.412 788.581 145.398 788.581 144.147C788.581 142.896 789.599 141.882 790.855 141.882C792.111 141.882 793.129 142.896 793.129 144.147Z" fill="white"/>
<path d="M806.774 144.147C806.774 145.398 805.756 146.412 804.5 146.412C803.244 146.412 802.226 145.398 802.226 144.147C802.226 142.896 803.244 141.882 804.5 141.882C805.756 141.882 806.774 142.896 806.774 144.147Z" fill="white"/>
<path d="M820.419 144.147C820.419 145.398 819.401 146.412 818.145 146.412C816.889 146.412 815.871 145.398 815.871 144.147C815.871 142.896 816.889 141.882 818.145 141.882C819.401 141.882 820.419 142.896 820.419 144.147Z" fill="white"/>
<path d="M834.065 144.147C834.065 145.398 833.046 146.412 831.79 146.412C830.534 146.412 829.516 145.398 829.516 144.147C829.516 142.896 830.534 141.882 831.79 141.882C833.046 141.882 834.065 142.896 834.065 144.147Z" fill="white"/>
<path d="M847.71 144.147C847.71 145.398 846.691 146.412 845.435 146.412C844.179 146.412 843.161 145.398 843.161 144.147C843.161 142.896 844.179 141.882 845.435 141.882C846.691 141.882 847.71 142.896 847.71 144.147Z" fill="white"/>
<path d="M861.355 144.147C861.355 145.398 860.337 146.412 859.081 146.412C857.825 146.412 856.806 145.398 856.806 144.147C856.806 142.896 857.825 141.882 859.081 141.882C860.337 141.882 861.355 142.896 861.355 144.147Z" fill="white"/>
<path d="M875 144.147C875 145.398 873.982 146.412 872.726 146.412C871.47 146.412 870.452 145.398 870.452 144.147C870.452 142.896 871.47 141.882 872.726 141.882C873.982 141.882 875 142.896 875 144.147Z" fill="white"/>
<path d="M738.548 157.735C738.548 158.986 737.53 160 736.274 160C735.018 160 734 158.986 734 157.735C734 156.485 735.018 155.471 736.274 155.471C737.53 155.471 738.548 156.485 738.548 157.735Z" fill="white"/>
<path d="M752.194 157.735C752.194 158.986 751.175 160 749.919 160C748.663 160 747.645 158.986 747.645 157.735C747.645 156.485 748.663 155.471 749.919 155.471C751.175 155.471 752.194 156.485 752.194 157.735Z" fill="white"/>
<path d="M765.839 157.735C765.839 158.986 764.821 160 763.565 160C762.309 160 761.29 158.986 761.29 157.735C761.29 156.485 762.309 155.471 763.565 155.471C764.821 155.471 765.839 156.485 765.839 157.735Z" fill="white"/>
<path d="M779.484 157.735C779.484 158.986 778.466 160 777.21 160C775.954 160 774.935 158.986 774.935 157.735C774.935 156.485 775.954 155.471 777.21 155.471C778.466 155.471 779.484 156.485 779.484 157.735Z" fill="white"/>
<path d="M793.129 157.735C793.129 158.986 792.111 160 790.855 160C789.599 160 788.581 158.986 788.581 157.735C788.581 156.485 789.599 155.471 790.855 155.471C792.111 155.471 793.129 156.485 793.129 157.735Z" fill="white"/>
<path d="M806.774 157.735C806.774 158.986 805.756 160 804.5 160C803.244 160 802.226 158.986 802.226 157.735C802.226 156.485 803.244 155.471 804.5 155.471C805.756 155.471 806.774 156.485 806.774 157.735Z" fill="white"/>
<path d="M820.419 157.735C820.419 158.986 819.401 160 818.145 160C816.889 160 815.871 158.986 815.871 157.735C815.871 156.485 816.889 155.471 818.145 155.471C819.401 155.471 820.419 156.485 820.419 157.735Z" fill="white"/>
<path d="M834.065 157.735C834.065 158.986 833.046 160 831.79 160C830.534 160 829.516 158.986 829.516 157.735C829.516 156.485 830.534 155.471 831.79 155.471C833.046 155.471 834.065 156.485 834.065 157.735Z" fill="white"/>
<path d="M847.71 157.735C847.71 158.986 846.691 160 845.435 160C844.179 160 843.161 158.986 843.161 157.735C843.161 156.485 844.179 155.471 845.435 155.471C846.691 155.471 847.71 156.485 847.71 157.735Z" fill="white"/>
<path d="M861.355 157.735C861.355 158.986 860.337 160 859.081 160C857.825 160 856.806 158.986 856.806 157.735C856.806 156.485 857.825 155.471 859.081 155.471C860.337 155.471 861.355 156.485 861.355 157.735Z" fill="white"/>
<path d="M875 157.735C875 158.986 873.982 160 872.726 160C871.47 160 870.452 158.986 870.452 157.735C870.452 156.485 871.47 155.471 872.726 155.471C873.982 155.471 875 156.485 875 157.735Z" fill="white"/>
<path d="M165.548 264.279C165.548 265.538 164.53 266.559 163.274 266.559C162.018 266.559 161 265.538 161 264.279C161 263.021 162.018 262 163.274 262C164.53 262 165.548 263.021 165.548 264.279Z" fill="white"/>
<path d="M179.194 264.279C179.194 265.538 178.175 266.559 176.919 266.559C175.663 266.559 174.645 265.538 174.645 264.279C174.645 263.021 175.663 262 176.919 262C178.175 262 179.194 263.021 179.194 264.279Z" fill="white"/>
<path d="M192.839 264.279C192.839 265.538 191.821 266.559 190.565 266.559C189.309 266.559 188.29 265.538 188.29 264.279C188.29 263.021 189.309 262 190.565 262C191.821 262 192.839 263.021 192.839 264.279Z" fill="white"/>
<path d="M206.484 264.279C206.484 265.538 205.466 266.559 204.21 266.559C202.954 266.559 201.935 265.538 201.935 264.279C201.935 263.021 202.954 262 204.21 262C205.466 262 206.484 263.021 206.484 264.279Z" fill="white"/>
<path d="M220.129 264.279C220.129 265.538 219.111 266.559 217.855 266.559C216.599 266.559 215.581 265.538 215.581 264.279C215.581 263.021 216.599 262 217.855 262C219.111 262 220.129 263.021 220.129 264.279Z" fill="white"/>
<path d="M233.774 264.279C233.774 265.538 232.756 266.559 231.5 266.559C230.244 266.559 229.226 265.538 229.226 264.279C229.226 263.021 230.244 262 231.5 262C232.756 262 233.774 263.021 233.774 264.279Z" fill="white"/>
<path d="M247.419 264.279C247.419 265.538 246.401 266.559 245.145 266.559C243.889 266.559 242.871 265.538 242.871 264.279C242.871 263.021 243.889 262 245.145 262C246.401 262 247.419 263.021 247.419 264.279Z" fill="white"/>
<path d="M261.065 264.279C261.065 265.538 260.046 266.559 258.79 266.559C257.534 266.559 256.516 265.538 256.516 264.279C256.516 263.021 257.534 262 258.79 262C260.046 262 261.065 263.021 261.065 264.279Z" fill="white"/>
<path d="M274.71 264.279C274.71 265.538 273.691 266.559 272.435 266.559C271.179 266.559 270.161 265.538 270.161 264.279C270.161 263.021 271.179 262 272.435 262C273.691 262 274.71 263.021 274.71 264.279Z" fill="white"/>
<path d="M288.355 264.279C288.355 265.538 287.337 266.559 286.081 266.559C284.825 266.559 283.806 265.538 283.806 264.279C283.806 263.021 284.825 262 286.081 262C287.337 262 288.355 263.021 288.355 264.279Z" fill="white"/>
<path d="M302 264.279C302 265.538 300.982 266.559 299.726 266.559C298.47 266.559 297.452 265.538 297.452 264.279C297.452 263.021 298.47 262 299.726 262C300.982 262 302 263.021 302 264.279Z" fill="white"/>
<path d="M165.548 277.956C165.548 279.215 164.53 280.235 163.274 280.235C162.018 280.235 161 279.215 161 277.956C161 276.697 162.018 275.676 163.274 275.676C164.53 275.676 165.548 276.697 165.548 277.956Z" fill="white"/>
<path d="M179.194 277.956C179.194 279.215 178.175 280.235 176.919 280.235C175.663 280.235 174.645 279.215 174.645 277.956C174.645 276.697 175.663 275.676 176.919 275.676C178.175 275.676 179.194 276.697 179.194 277.956Z" fill="white"/>
<path d="M192.839 277.956C192.839 279.215 191.821 280.235 190.565 280.235C189.309 280.235 188.29 279.215 188.29 277.956C188.29 276.697 189.309 275.676 190.565 275.676C191.821 275.676 192.839 276.697 192.839 277.956Z" fill="white"/>
<path d="M206.484 277.956C206.484 279.215 205.466 280.235 204.21 280.235C202.954 280.235 201.935 279.215 201.935 277.956C201.935 276.697 202.954 275.676 204.21 275.676C205.466 275.676 206.484 276.697 206.484 277.956Z" fill="white"/>
<path d="M220.129 277.956C220.129 279.215 219.111 280.235 217.855 280.235C216.599 280.235 215.581 279.215 215.581 277.956C215.581 276.697 216.599 275.676 217.855 275.676C219.111 275.676 220.129 276.697 220.129 277.956Z" fill="white"/>
<path d="M233.774 277.956C233.774 279.215 232.756 280.235 231.5 280.235C230.244 280.235 229.226 279.215 229.226 277.956C229.226 276.697 230.244 275.676 231.5 275.676C232.756 275.676 233.774 276.697 233.774 277.956Z" fill="white"/>
<path d="M247.419 277.956C247.419 279.215 246.401 280.235 245.145 280.235C243.889 280.235 242.871 279.215 242.871 277.956C242.871 276.697 243.889 275.676 245.145 275.676C246.401 275.676 247.419 276.697 247.419 277.956Z" fill="white"/>
<path d="M261.065 277.956C261.065 279.215 260.046 280.235 258.79 280.235C257.534 280.235 256.516 279.215 256.516 277.956C256.516 276.697 257.534 275.676 258.79 275.676C260.046 275.676 261.065 276.697 261.065 277.956Z" fill="white"/>
<path d="M274.71 277.956C274.71 279.215 273.691 280.235 272.435 280.235C271.179 280.235 270.161 279.215 270.161 277.956C270.161 276.697 271.179 275.676 272.435 275.676C273.691 275.676 274.71 276.697 274.71 277.956Z" fill="white"/>
<path d="M288.355 277.956C288.355 279.215 287.337 280.235 286.081 280.235C284.825 280.235 283.806 279.215 283.806 277.956C283.806 276.697 284.825 275.676 286.081 275.676C287.337 275.676 288.355 276.697 288.355 277.956Z" fill="white"/>
<path d="M302 277.956C302 279.215 300.982 280.235 299.726 280.235C298.47 280.235 297.452 279.215 297.452 277.956C297.452 276.697 298.47 275.676 299.726 275.676C300.982 275.676 302 276.697 302 277.956Z" fill="white"/>
<path d="M165.548 291.632C165.548 292.891 164.53 293.912 163.274 293.912C162.018 293.912 161 292.891 161 291.632C161 290.373 162.018 289.353 163.274 289.353C164.53 289.353 165.548 290.373 165.548 291.632Z" fill="white"/>
<path d="M179.194 291.632C179.194 292.891 178.175 293.912 176.919 293.912C175.663 293.912 174.645 292.891 174.645 291.632C174.645 290.373 175.663 289.353 176.919 289.353C178.175 289.353 179.194 290.373 179.194 291.632Z" fill="white"/>
<path d="M192.839 291.632C192.839 292.891 191.821 293.912 190.565 293.912C189.309 293.912 188.29 292.891 188.29 291.632C188.29 290.373 189.309 289.353 190.565 289.353C191.821 289.353 192.839 290.373 192.839 291.632Z" fill="white"/>
<path d="M206.484 291.632C206.484 292.891 205.466 293.912 204.21 293.912C202.954 293.912 201.935 292.891 201.935 291.632C201.935 290.373 202.954 289.353 204.21 289.353C205.466 289.353 206.484 290.373 206.484 291.632Z" fill="white"/>
<path d="M220.129 291.632C220.129 292.891 219.111 293.912 217.855 293.912C216.599 293.912 215.581 292.891 215.581 291.632C215.581 290.373 216.599 289.353 217.855 289.353C219.111 289.353 220.129 290.373 220.129 291.632Z" fill="white"/>
<path d="M233.774 291.632C233.774 292.891 232.756 293.912 231.5 293.912C230.244 293.912 229.226 292.891 229.226 291.632C229.226 290.373 230.244 289.353 231.5 289.353C232.756 289.353 233.774 290.373 233.774 291.632Z" fill="white"/>
<path d="M247.419 291.632C247.419 292.891 246.401 293.912 245.145 293.912C243.889 293.912 242.871 292.891 242.871 291.632C242.871 290.373 243.889 289.353 245.145 289.353C246.401 289.353 247.419 290.373 247.419 291.632Z" fill="white"/>
<path d="M261.065 291.632C261.065 292.891 260.046 293.912 258.79 293.912C257.534 293.912 256.516 292.891 256.516 291.632C256.516 290.373 257.534 289.353 258.79 289.353C260.046 289.353 261.065 290.373 261.065 291.632Z" fill="white"/>
<path d="M274.71 291.632C274.71 292.891 273.691 293.912 272.435 293.912C271.179 293.912 270.161 292.891 270.161 291.632C270.161 290.373 271.179 289.353 272.435 289.353C273.691 289.353 274.71 290.373 274.71 291.632Z" fill="white"/>
<path d="M288.355 291.632C288.355 292.891 287.337 293.912 286.081 293.912C284.825 293.912 283.806 292.891 283.806 291.632C283.806 290.373 284.825 289.353 286.081 289.353C287.337 289.353 288.355 290.373 288.355 291.632Z" fill="white"/>
<path d="M302 291.632C302 292.891 300.982 293.912 299.726 293.912C298.47 293.912 297.452 292.891 297.452 291.632C297.452 290.373 298.47 289.353 299.726 289.353C300.982 289.353 302 290.373 302 291.632Z" fill="white"/>
<path d="M165.548 305.309C165.548 306.568 164.53 307.588 163.274 307.588C162.018 307.588 161 306.568 161 305.309C161 304.05 162.018 303.029 163.274 303.029C164.53 303.029 165.548 304.05 165.548 305.309Z" fill="white"/>
<path d="M179.194 305.309C179.194 306.568 178.175 307.588 176.919 307.588C175.663 307.588 174.645 306.568 174.645 305.309C174.645 304.05 175.663 303.029 176.919 303.029C178.175 303.029 179.194 304.05 179.194 305.309Z" fill="white"/>
<path d="M192.839 305.309C192.839 306.568 191.821 307.588 190.565 307.588C189.309 307.588 188.29 306.568 188.29 305.309C188.29 304.05 189.309 303.029 190.565 303.029C191.821 303.029 192.839 304.05 192.839 305.309Z" fill="white"/>
<path d="M206.484 305.309C206.484 306.568 205.466 307.588 204.21 307.588C202.954 307.588 201.935 306.568 201.935 305.309C201.935 304.05 202.954 303.029 204.21 303.029C205.466 303.029 206.484 304.05 206.484 305.309Z" fill="white"/>
<path d="M220.129 305.309C220.129 306.568 219.111 307.588 217.855 307.588C216.599 307.588 215.581 306.568 215.581 305.309C215.581 304.05 216.599 303.029 217.855 303.029C219.111 303.029 220.129 304.05 220.129 305.309Z" fill="white"/>
<path d="M233.774 305.309C233.774 306.568 232.756 307.588 231.5 307.588C230.244 307.588 229.226 306.568 229.226 305.309C229.226 304.05 230.244 303.029 231.5 303.029C232.756 303.029 233.774 304.05 233.774 305.309Z" fill="white"/>
<path d="M247.419 305.309C247.419 306.568 246.401 307.588 245.145 307.588C243.889 307.588 242.871 306.568 242.871 305.309C242.871 304.05 243.889 303.029 245.145 303.029C246.401 303.029 247.419 304.05 247.419 305.309Z" fill="white"/>
<path d="M261.065 305.309C261.065 306.568 260.046 307.588 258.79 307.588C257.534 307.588 256.516 306.568 256.516 305.309C256.516 304.05 257.534 303.029 258.79 303.029C260.046 303.029 261.065 304.05 261.065 305.309Z" fill="white"/>
<path d="M274.71 305.309C274.71 306.568 273.691 307.588 272.435 307.588C271.179 307.588 270.161 306.568 270.161 305.309C270.161 304.05 271.179 303.029 272.435 303.029C273.691 303.029 274.71 304.05 274.71 305.309Z" fill="white"/>
<path d="M288.355 305.309C288.355 306.568 287.337 307.588 286.081 307.588C284.825 307.588 283.806 306.568 283.806 305.309C283.806 304.05 284.825 303.029 286.081 303.029C287.337 303.029 288.355 304.05 288.355 305.309Z" fill="white"/>
<path d="M302 305.309C302 306.568 300.982 307.588 299.726 307.588C298.47 307.588 297.452 306.568 297.452 305.309C297.452 304.05 298.47 303.029 299.726 303.029C300.982 303.029 302 304.05 302 305.309Z" fill="white"/>
<path d="M165.548 318.985C165.548 320.244 164.53 321.265 163.274 321.265C162.018 321.265 161 320.244 161 318.985C161 317.726 162.018 316.706 163.274 316.706C164.53 316.706 165.548 317.726 165.548 318.985Z" fill="white"/>
<path d="M179.194 318.985C179.194 320.244 178.175 321.265 176.919 321.265C175.663 321.265 174.645 320.244 174.645 318.985C174.645 317.726 175.663 316.706 176.919 316.706C178.175 316.706 179.194 317.726 179.194 318.985Z" fill="white"/>
<path d="M192.839 318.985C192.839 320.244 191.821 321.265 190.565 321.265C189.309 321.265 188.29 320.244 188.29 318.985C188.29 317.726 189.309 316.706 190.565 316.706C191.821 316.706 192.839 317.726 192.839 318.985Z" fill="white"/>
<path d="M206.484 318.985C206.484 320.244 205.466 321.265 204.21 321.265C202.954 321.265 201.935 320.244 201.935 318.985C201.935 317.726 202.954 316.706 204.21 316.706C205.466 316.706 206.484 317.726 206.484 318.985Z" fill="white"/>
<path d="M220.129 318.985C220.129 320.244 219.111 321.265 217.855 321.265C216.599 321.265 215.581 320.244 215.581 318.985C215.581 317.726 216.599 316.706 217.855 316.706C219.111 316.706 220.129 317.726 220.129 318.985Z" fill="white"/>
<path d="M233.774 318.985C233.774 320.244 232.756 321.265 231.5 321.265C230.244 321.265 229.226 320.244 229.226 318.985C229.226 317.726 230.244 316.706 231.5 316.706C232.756 316.706 233.774 317.726 233.774 318.985Z" fill="white"/>
<path d="M247.419 318.985C247.419 320.244 246.401 321.265 245.145 321.265C243.889 321.265 242.871 320.244 242.871 318.985C242.871 317.726 243.889 316.706 245.145 316.706C246.401 316.706 247.419 317.726 247.419 318.985Z" fill="white"/>
<path d="M261.065 318.985C261.065 320.244 260.046 321.265 258.79 321.265C257.534 321.265 256.516 320.244 256.516 318.985C256.516 317.726 257.534 316.706 258.79 316.706C260.046 316.706 261.065 317.726 261.065 318.985Z" fill="white"/>
<path d="M274.71 318.985C274.71 320.244 273.691 321.265 272.435 321.265C271.179 321.265 270.161 320.244 270.161 318.985C270.161 317.726 271.179 316.706 272.435 316.706C273.691 316.706 274.71 317.726 274.71 318.985Z" fill="white"/>
<path d="M288.355 318.985C288.355 320.244 287.337 321.265 286.081 321.265C284.825 321.265 283.806 320.244 283.806 318.985C283.806 317.726 284.825 316.706 286.081 316.706C287.337 316.706 288.355 317.726 288.355 318.985Z" fill="white"/>
<path d="M302 318.985C302 320.244 300.982 321.265 299.726 321.265C298.47 321.265 297.452 320.244 297.452 318.985C297.452 317.726 298.47 316.706 299.726 316.706C300.982 316.706 302 317.726 302 318.985Z" fill="white"/>
<path d="M165.548 332.662C165.548 333.921 164.53 334.941 163.274 334.941C162.018 334.941 161 333.921 161 332.662C161 331.403 162.018 330.382 163.274 330.382C164.53 330.382 165.548 331.403 165.548 332.662Z" fill="white"/>
<path d="M179.194 332.662C179.194 333.921 178.175 334.941 176.919 334.941C175.663 334.941 174.645 333.921 174.645 332.662C174.645 331.403 175.663 330.382 176.919 330.382C178.175 330.382 179.194 331.403 179.194 332.662Z" fill="white"/>
<path d="M192.839 332.662C192.839 333.921 191.821 334.941 190.565 334.941C189.309 334.941 188.29 333.921 188.29 332.662C188.29 331.403 189.309 330.382 190.565 330.382C191.821 330.382 192.839 331.403 192.839 332.662Z" fill="white"/>
<path d="M206.484 332.662C206.484 333.921 205.466 334.941 204.21 334.941C202.954 334.941 201.935 333.921 201.935 332.662C201.935 331.403 202.954 330.382 204.21 330.382C205.466 330.382 206.484 331.403 206.484 332.662Z" fill="white"/>
<path d="M220.129 332.662C220.129 333.921 219.111 334.941 217.855 334.941C216.599 334.941 215.581 333.921 215.581 332.662C215.581 331.403 216.599 330.382 217.855 330.382C219.111 330.382 220.129 331.403 220.129 332.662Z" fill="white"/>
<path d="M233.774 332.662C233.774 333.921 232.756 334.941 231.5 334.941C230.244 334.941 229.226 333.921 229.226 332.662C229.226 331.403 230.244 330.382 231.5 330.382C232.756 330.382 233.774 331.403 233.774 332.662Z" fill="white"/>
<path d="M247.419 332.662C247.419 333.921 246.401 334.941 245.145 334.941C243.889 334.941 242.871 333.921 242.871 332.662C242.871 331.403 243.889 330.382 245.145 330.382C246.401 330.382 247.419 331.403 247.419 332.662Z" fill="white"/>
<path d="M261.065 332.662C261.065 333.921 260.046 334.941 258.79 334.941C257.534 334.941 256.516 333.921 256.516 332.662C256.516 331.403 257.534 330.382 258.79 330.382C260.046 330.382 261.065 331.403 261.065 332.662Z" fill="white"/>
<path d="M274.71 332.662C274.71 333.921 273.691 334.941 272.435 334.941C271.179 334.941 270.161 333.921 270.161 332.662C270.161 331.403 271.179 330.382 272.435 330.382C273.691 330.382 274.71 331.403 274.71 332.662Z" fill="white"/>
<path d="M288.355 332.662C288.355 333.921 287.337 334.941 286.081 334.941C284.825 334.941 283.806 333.921 283.806 332.662C283.806 331.403 284.825 330.382 286.081 330.382C287.337 330.382 288.355 331.403 288.355 332.662Z" fill="white"/>
<path d="M302 332.662C302 333.921 300.982 334.941 299.726 334.941C298.47 334.941 297.452 333.921 297.452 332.662C297.452 331.403 298.47 330.382 299.726 330.382C300.982 330.382 302 331.403 302 332.662Z" fill="white"/>
<path d="M165.548 346.338C165.548 347.597 164.53 348.618 163.274 348.618C162.018 348.618 161 347.597 161 346.338C161 345.079 162.018 344.059 163.274 344.059C164.53 344.059 165.548 345.079 165.548 346.338Z" fill="white"/>
<path d="M179.194 346.338C179.194 347.597 178.175 348.618 176.919 348.618C175.663 348.618 174.645 347.597 174.645 346.338C174.645 345.079 175.663 344.059 176.919 344.059C178.175 344.059 179.194 345.079 179.194 346.338Z" fill="white"/>
<path d="M192.839 346.338C192.839 347.597 191.821 348.618 190.565 348.618C189.309 348.618 188.29 347.597 188.29 346.338C188.29 345.079 189.309 344.059 190.565 344.059C191.821 344.059 192.839 345.079 192.839 346.338Z" fill="white"/>
<path d="M206.484 346.338C206.484 347.597 205.466 348.618 204.21 348.618C202.954 348.618 201.935 347.597 201.935 346.338C201.935 345.079 202.954 344.059 204.21 344.059C205.466 344.059 206.484 345.079 206.484 346.338Z" fill="white"/>
<path d="M220.129 346.338C220.129 347.597 219.111 348.618 217.855 348.618C216.599 348.618 215.581 347.597 215.581 346.338C215.581 345.079 216.599 344.059 217.855 344.059C219.111 344.059 220.129 345.079 220.129 346.338Z" fill="white"/>
<path d="M233.774 346.338C233.774 347.597 232.756 348.618 231.5 348.618C230.244 348.618 229.226 347.597 229.226 346.338C229.226 345.079 230.244 344.059 231.5 344.059C232.756 344.059 233.774 345.079 233.774 346.338Z" fill="white"/>
<path d="M247.419 346.338C247.419 347.597 246.401 348.618 245.145 348.618C243.889 348.618 242.871 347.597 242.871 346.338C242.871 345.079 243.889 344.059 245.145 344.059C246.401 344.059 247.419 345.079 247.419 346.338Z" fill="white"/>
<path d="M261.065 346.338C261.065 347.597 260.046 348.618 258.79 348.618C257.534 348.618 256.516 347.597 256.516 346.338C256.516 345.079 257.534 344.059 258.79 344.059C260.046 344.059 261.065 345.079 261.065 346.338Z" fill="white"/>
<path d="M274.71 346.338C274.71 347.597 273.691 348.618 272.435 348.618C271.179 348.618 270.161 347.597 270.161 346.338C270.161 345.079 271.179 344.059 272.435 344.059C273.691 344.059 274.71 345.079 274.71 346.338Z" fill="white"/>
<path d="M288.355 346.338C288.355 347.597 287.337 348.618 286.081 348.618C284.825 348.618 283.806 347.597 283.806 346.338C283.806 345.079 284.825 344.059 286.081 344.059C287.337 344.059 288.355 345.079 288.355 346.338Z" fill="white"/>
<path d="M302 346.338C302 347.597 300.982 348.618 299.726 348.618C298.47 348.618 297.452 347.597 297.452 346.338C297.452 345.079 298.47 344.059 299.726 344.059C300.982 344.059 302 345.079 302 346.338Z" fill="white"/>
<path d="M165.548 360.015C165.548 361.274 164.53 362.294 163.274 362.294C162.018 362.294 161 361.274 161 360.015C161 358.756 162.018 357.735 163.274 357.735C164.53 357.735 165.548 358.756 165.548 360.015Z" fill="white"/>
<path d="M179.194 360.015C179.194 361.274 178.175 362.294 176.919 362.294C175.663 362.294 174.645 361.274 174.645 360.015C174.645 358.756 175.663 357.735 176.919 357.735C178.175 357.735 179.194 358.756 179.194 360.015Z" fill="white"/>
<path d="M192.839 360.015C192.839 361.274 191.821 362.294 190.565 362.294C189.309 362.294 188.29 361.274 188.29 360.015C188.29 358.756 189.309 357.735 190.565 357.735C191.821 357.735 192.839 358.756 192.839 360.015Z" fill="white"/>
<path d="M206.484 360.015C206.484 361.274 205.466 362.294 204.21 362.294C202.954 362.294 201.935 361.274 201.935 360.015C201.935 358.756 202.954 357.735 204.21 357.735C205.466 357.735 206.484 358.756 206.484 360.015Z" fill="white"/>
<path d="M220.129 360.015C220.129 361.274 219.111 362.294 217.855 362.294C216.599 362.294 215.581 361.274 215.581 360.015C215.581 358.756 216.599 357.735 217.855 357.735C219.111 357.735 220.129 358.756 220.129 360.015Z" fill="white"/>
<path d="M233.774 360.015C233.774 361.274 232.756 362.294 231.5 362.294C230.244 362.294 229.226 361.274 229.226 360.015C229.226 358.756 230.244 357.735 231.5 357.735C232.756 357.735 233.774 358.756 233.774 360.015Z" fill="white"/>
<path d="M247.419 360.015C247.419 361.274 246.401 362.294 245.145 362.294C243.889 362.294 242.871 361.274 242.871 360.015C242.871 358.756 243.889 357.735 245.145 357.735C246.401 357.735 247.419 358.756 247.419 360.015Z" fill="white"/>
<path d="M261.065 360.015C261.065 361.274 260.046 362.294 258.79 362.294C257.534 362.294 256.516 361.274 256.516 360.015C256.516 358.756 257.534 357.735 258.79 357.735C260.046 357.735 261.065 358.756 261.065 360.015Z" fill="white"/>
<path d="M274.71 360.015C274.71 361.274 273.691 362.294 272.435 362.294C271.179 362.294 270.161 361.274 270.161 360.015C270.161 358.756 271.179 357.735 272.435 357.735C273.691 357.735 274.71 358.756 274.71 360.015Z" fill="white"/>
<path d="M288.355 360.015C288.355 361.274 287.337 362.294 286.081 362.294C284.825 362.294 283.806 361.274 283.806 360.015C283.806 358.756 284.825 357.735 286.081 357.735C287.337 357.735 288.355 358.756 288.355 360.015Z" fill="white"/>
<path d="M302 360.015C302 361.274 300.982 362.294 299.726 362.294C298.47 362.294 297.452 361.274 297.452 360.015C297.452 358.756 298.47 357.735 299.726 357.735C300.982 357.735 302 358.756 302 360.015Z" fill="white"/>
<path d="M165.548 373.691C165.548 374.95 164.53 375.971 163.274 375.971C162.018 375.971 161 374.95 161 373.691C161 372.432 162.018 371.412 163.274 371.412C164.53 371.412 165.548 372.432 165.548 373.691Z" fill="white"/>
<path d="M179.194 373.691C179.194 374.95 178.175 375.971 176.919 375.971C175.663 375.971 174.645 374.95 174.645 373.691C174.645 372.432 175.663 371.412 176.919 371.412C178.175 371.412 179.194 372.432 179.194 373.691Z" fill="white"/>
<path d="M192.839 373.691C192.839 374.95 191.821 375.971 190.565 375.971C189.309 375.971 188.29 374.95 188.29 373.691C188.29 372.432 189.309 371.412 190.565 371.412C191.821 371.412 192.839 372.432 192.839 373.691Z" fill="white"/>
<path d="M206.484 373.691C206.484 374.95 205.466 375.971 204.21 375.971C202.954 375.971 201.935 374.95 201.935 373.691C201.935 372.432 202.954 371.412 204.21 371.412C205.466 371.412 206.484 372.432 206.484 373.691Z" fill="white"/>
<path d="M220.129 373.691C220.129 374.95 219.111 375.971 217.855 375.971C216.599 375.971 215.581 374.95 215.581 373.691C215.581 372.432 216.599 371.412 217.855 371.412C219.111 371.412 220.129 372.432 220.129 373.691Z" fill="white"/>
<path d="M233.774 373.691C233.774 374.95 232.756 375.971 231.5 375.971C230.244 375.971 229.226 374.95 229.226 373.691C229.226 372.432 230.244 371.412 231.5 371.412C232.756 371.412 233.774 372.432 233.774 373.691Z" fill="white"/>
<path d="M247.419 373.691C247.419 374.95 246.401 375.971 245.145 375.971C243.889 375.971 242.871 374.95 242.871 373.691C242.871 372.432 243.889 371.412 245.145 371.412C246.401 371.412 247.419 372.432 247.419 373.691Z" fill="white"/>
<path d="M261.065 373.691C261.065 374.95 260.046 375.971 258.79 375.971C257.534 375.971 256.516 374.95 256.516 373.691C256.516 372.432 257.534 371.412 258.79 371.412C260.046 371.412 261.065 372.432 261.065 373.691Z" fill="white"/>
<path d="M274.71 373.691C274.71 374.95 273.691 375.971 272.435 375.971C271.179 375.971 270.161 374.95 270.161 373.691C270.161 372.432 271.179 371.412 272.435 371.412C273.691 371.412 274.71 372.432 274.71 373.691Z" fill="white"/>
<path d="M288.355 373.691C288.355 374.95 287.337 375.971 286.081 375.971C284.825 375.971 283.806 374.95 283.806 373.691C283.806 372.432 284.825 371.412 286.081 371.412C287.337 371.412 288.355 372.432 288.355 373.691Z" fill="white"/>
<path d="M302 373.691C302 374.95 300.982 375.971 299.726 375.971C298.47 375.971 297.452 374.95 297.452 373.691C297.452 372.432 298.47 371.412 299.726 371.412C300.982 371.412 302 372.432 302 373.691Z" fill="white"/>
<path d="M165.548 387.368C165.548 388.627 164.53 389.647 163.274 389.647C162.018 389.647 161 388.627 161 387.368C161 386.109 162.018 385.088 163.274 385.088C164.53 385.088 165.548 386.109 165.548 387.368Z" fill="white"/>
<path d="M179.194 387.368C179.194 388.627 178.175 389.647 176.919 389.647C175.663 389.647 174.645 388.627 174.645 387.368C174.645 386.109 175.663 385.088 176.919 385.088C178.175 385.088 179.194 386.109 179.194 387.368Z" fill="white"/>
<path d="M192.839 387.368C192.839 388.627 191.821 389.647 190.565 389.647C189.309 389.647 188.29 388.627 188.29 387.368C188.29 386.109 189.309 385.088 190.565 385.088C191.821 385.088 192.839 386.109 192.839 387.368Z" fill="white"/>
<path d="M206.484 387.368C206.484 388.627 205.466 389.647 204.21 389.647C202.954 389.647 201.935 388.627 201.935 387.368C201.935 386.109 202.954 385.088 204.21 385.088C205.466 385.088 206.484 386.109 206.484 387.368Z" fill="white"/>
<path d="M220.129 387.368C220.129 388.627 219.111 389.647 217.855 389.647C216.599 389.647 215.581 388.627 215.581 387.368C215.581 386.109 216.599 385.088 217.855 385.088C219.111 385.088 220.129 386.109 220.129 387.368Z" fill="white"/>
<path d="M233.774 387.368C233.774 388.627 232.756 389.647 231.5 389.647C230.244 389.647 229.226 388.627 229.226 387.368C229.226 386.109 230.244 385.088 231.5 385.088C232.756 385.088 233.774 386.109 233.774 387.368Z" fill="white"/>
<path d="M247.419 387.368C247.419 388.627 246.401 389.647 245.145 389.647C243.889 389.647 242.871 388.627 242.871 387.368C242.871 386.109 243.889 385.088 245.145 385.088C246.401 385.088 247.419 386.109 247.419 387.368Z" fill="white"/>
<path d="M261.065 387.368C261.065 388.627 260.046 389.647 258.79 389.647C257.534 389.647 256.516 388.627 256.516 387.368C256.516 386.109 257.534 385.088 258.79 385.088C260.046 385.088 261.065 386.109 261.065 387.368Z" fill="white"/>
<path d="M274.71 387.368C274.71 388.627 273.691 389.647 272.435 389.647C271.179 389.647 270.161 388.627 270.161 387.368C270.161 386.109 271.179 385.088 272.435 385.088C273.691 385.088 274.71 386.109 274.71 387.368Z" fill="white"/>
<path d="M288.355 387.368C288.355 388.627 287.337 389.647 286.081 389.647C284.825 389.647 283.806 388.627 283.806 387.368C283.806 386.109 284.825 385.088 286.081 385.088C287.337 385.088 288.355 386.109 288.355 387.368Z" fill="white"/>
<path d="M302 387.368C302 388.627 300.982 389.647 299.726 389.647C298.47 389.647 297.452 388.627 297.452 387.368C297.452 386.109 298.47 385.088 299.726 385.088C300.982 385.088 302 386.109 302 387.368Z" fill="white"/>
<path d="M165.548 401.044C165.548 402.303 164.53 403.324 163.274 403.324C162.018 403.324 161 402.303 161 401.044C161 399.785 162.018 398.765 163.274 398.765C164.53 398.765 165.548 399.785 165.548 401.044Z" fill="white"/>
<path d="M179.194 401.044C179.194 402.303 178.175 403.324 176.919 403.324C175.663 403.324 174.645 402.303 174.645 401.044C174.645 399.785 175.663 398.765 176.919 398.765C178.175 398.765 179.194 399.785 179.194 401.044Z" fill="white"/>
<path d="M192.839 401.044C192.839 402.303 191.821 403.324 190.565 403.324C189.309 403.324 188.29 402.303 188.29 401.044C188.29 399.785 189.309 398.765 190.565 398.765C191.821 398.765 192.839 399.785 192.839 401.044Z" fill="white"/>
<path d="M206.484 401.044C206.484 402.303 205.466 403.324 204.21 403.324C202.954 403.324 201.935 402.303 201.935 401.044C201.935 399.785 202.954 398.765 204.21 398.765C205.466 398.765 206.484 399.785 206.484 401.044Z" fill="white"/>
<path d="M220.129 401.044C220.129 402.303 219.111 403.324 217.855 403.324C216.599 403.324 215.581 402.303 215.581 401.044C215.581 399.785 216.599 398.765 217.855 398.765C219.111 398.765 220.129 399.785 220.129 401.044Z" fill="white"/>
<path d="M233.774 401.044C233.774 402.303 232.756 403.324 231.5 403.324C230.244 403.324 229.226 402.303 229.226 401.044C229.226 399.785 230.244 398.765 231.5 398.765C232.756 398.765 233.774 399.785 233.774 401.044Z" fill="white"/>
<path d="M247.419 401.044C247.419 402.303 246.401 403.324 245.145 403.324C243.889 403.324 242.871 402.303 242.871 401.044C242.871 399.785 243.889 398.765 245.145 398.765C246.401 398.765 247.419 399.785 247.419 401.044Z" fill="white"/>
<path d="M261.065 401.044C261.065 402.303 260.046 403.324 258.79 403.324C257.534 403.324 256.516 402.303 256.516 401.044C256.516 399.785 257.534 398.765 258.79 398.765C260.046 398.765 261.065 399.785 261.065 401.044Z" fill="white"/>
<path d="M274.71 401.044C274.71 402.303 273.691 403.324 272.435 403.324C271.179 403.324 270.161 402.303 270.161 401.044C270.161 399.785 271.179 398.765 272.435 398.765C273.691 398.765 274.71 399.785 274.71 401.044Z" fill="white"/>
<path d="M288.355 401.044C288.355 402.303 287.337 403.324 286.081 403.324C284.825 403.324 283.806 402.303 283.806 401.044C283.806 399.785 284.825 398.765 286.081 398.765C287.337 398.765 288.355 399.785 288.355 401.044Z" fill="white"/>
<path d="M302 401.044C302 402.303 300.982 403.324 299.726 403.324C298.47 403.324 297.452 402.303 297.452 401.044C297.452 399.785 298.47 398.765 299.726 398.765C300.982 398.765 302 399.785 302 401.044Z" fill="white"/>
<path d="M165.548 414.721C165.548 415.979 164.53 417 163.274 417C162.018 417 161 415.979 161 414.721C161 413.462 162.018 412.441 163.274 412.441C164.53 412.441 165.548 413.462 165.548 414.721Z" fill="white"/>
<path d="M179.194 414.721C179.194 415.979 178.175 417 176.919 417C175.663 417 174.645 415.979 174.645 414.721C174.645 413.462 175.663 412.441 176.919 412.441C178.175 412.441 179.194 413.462 179.194 414.721Z" fill="white"/>
<path d="M192.839 414.721C192.839 415.979 191.821 417 190.565 417C189.309 417 188.29 415.979 188.29 414.721C188.29 413.462 189.309 412.441 190.565 412.441C191.821 412.441 192.839 413.462 192.839 414.721Z" fill="white"/>
<path d="M206.484 414.721C206.484 415.979 205.466 417 204.21 417C202.954 417 201.935 415.979 201.935 414.721C201.935 413.462 202.954 412.441 204.21 412.441C205.466 412.441 206.484 413.462 206.484 414.721Z" fill="white"/>
<path d="M220.129 414.721C220.129 415.979 219.111 417 217.855 417C216.599 417 215.581 415.979 215.581 414.721C215.581 413.462 216.599 412.441 217.855 412.441C219.111 412.441 220.129 413.462 220.129 414.721Z" fill="white"/>
<path d="M233.774 414.721C233.774 415.979 232.756 417 231.5 417C230.244 417 229.226 415.979 229.226 414.721C229.226 413.462 230.244 412.441 231.5 412.441C232.756 412.441 233.774 413.462 233.774 414.721Z" fill="white"/>
<path d="M247.419 414.721C247.419 415.979 246.401 417 245.145 417C243.889 417 242.871 415.979 242.871 414.721C242.871 413.462 243.889 412.441 245.145 412.441C246.401 412.441 247.419 413.462 247.419 414.721Z" fill="white"/>
<path d="M261.065 414.721C261.065 415.979 260.046 417 258.79 417C257.534 417 256.516 415.979 256.516 414.721C256.516 413.462 257.534 412.441 258.79 412.441C260.046 412.441 261.065 413.462 261.065 414.721Z" fill="white"/>
<path d="M274.71 414.721C274.71 415.979 273.691 417 272.435 417C271.179 417 270.161 415.979 270.161 414.721C270.161 413.462 271.179 412.441 272.435 412.441C273.691 412.441 274.71 413.462 274.71 414.721Z" fill="white"/>
<path d="M288.355 414.721C288.355 415.979 287.337 417 286.081 417C284.825 417 283.806 415.979 283.806 414.721C283.806 413.462 284.825 412.441 286.081 412.441C287.337 412.441 288.355 413.462 288.355 414.721Z" fill="white"/>
<path d="M302 414.721C302 415.979 300.982 417 299.726 417C298.47 417 297.452 415.979 297.452 414.721C297.452 413.462 298.47 412.441 299.726 412.441C300.982 412.441 302 413.462 302 414.721Z" fill="white"/>
<path d="M1 52.809C1 52.2567 0.552285 51.809 0 51.809L0 48.8034C0.552285 48.8034 1 48.3557 1 47.8034L1 45.3007C1 45.1148 1.04744 44.9575 1.12201 44.8281C1.26102 44.5869 1.28822 44.3119 1.21973 44.0632C1.39703 44.2478 1.64474 44.3647 1.92083 44.3702C2.06416 44.3731 2.21648 44.4131 2.36891 44.509L4.25604 45.6965C4.72347 45.9907 5.34086 45.8502 5.635 45.3828L7.71651 46.6926C7.42237 47.1601 7.56284 47.7774 8.03028 48.0716L11.8045 50.4466C12.272 50.7408 12.8893 50.6003 13.1835 50.1329L15.265 51.4427C14.9709 51.9102 15.1113 52.5276 15.5788 52.8217L17.4659 54.0092C17.6975 54.155 17.945 54.2651 18.2008 54.3391C18.4815 54.4203 18.7688 54.373 19 54.2319C19.2312 54.373 19.5185 54.4203 19.7992 54.3391C20.055 54.2651 20.3025 54.155 20.5341 54.0092L22.4212 52.8217C22.8887 52.5276 23.0292 51.9102 22.735 51.4427L24.8165 50.1329C25.1107 50.6003 25.728 50.7408 26.1955 50.4466L29.9697 48.0716C30.4372 47.7774 30.5776 47.1601 30.2835 46.6926L32.365 45.3828C32.6591 45.8502 33.2765 45.9907 33.744 45.6965L35.6311 44.509C35.7835 44.4131 35.9358 44.3731 36.0792 44.3702C36.3553 44.3647 36.603 44.2478 36.7803 44.0632C36.7118 44.3119 36.739 44.5869 36.878 44.8281C36.9526 44.9575 37 45.1147 37 45.3007V47.8034C37 48.3557 37.4477 48.8034 38 48.8034V51.809C37.4477 51.809 37 52.2567 37 52.809V55.3118C37 55.3925 36.9898 55.4715 36.9705 55.5472C36.9493 55.6307 36.9392 55.7144 36.9393 55.7967C36.8703 55.8407 36.8056 55.894 36.7471 55.9564C36.6945 56.0125 36.6349 56.0619 36.5689 56.1034L35.1439 57.0001C34.6765 57.2943 34.536 57.9117 34.8301 58.3791L33.6729 59.1074C33.3787 58.6399 32.7613 58.4994 32.2939 58.7936L29.4439 60.587C28.9765 60.8812 28.836 61.4986 29.1301 61.966L27.9729 62.6943C27.6787 62.2268 27.0613 62.0863 26.5939 62.3805L23.7439 64.1739C23.2765 64.4681 23.136 65.0855 23.4301 65.5529L22.2729 66.2812C21.9787 65.8137 21.3613 65.6732 20.8939 65.9674L19.4689 66.8641C19.3969 66.9094 19.321 66.943 19.2433 66.9655C19.1557 66.9909 19.0743 67.0271 19 67.0724C18.9257 67.0271 18.8443 66.9909 18.7567 66.9655C18.679 66.943 18.6031 66.9094 18.5311 66.8641L17.1061 65.9674C16.6387 65.6732 16.0213 65.8137 15.7271 66.2812L14.5699 65.5529C14.864 65.0855 14.7235 64.4681 14.2561 64.1739L11.4061 62.3805C10.9387 62.0863 10.3213 62.2268 10.0271 62.6943L8.86985 61.966C9.164 61.4986 9.02352 60.8812 8.55609 60.587L5.70609 58.7936C5.23865 58.4994 4.62127 58.6399 4.32712 59.1074L3.16985 58.3791C3.464 57.9117 3.32352 57.2943 2.85609 57.0001L1.43109 56.1034C1.36513 56.0619 1.30547 56.0125 1.25291 55.9564C1.19436 55.894 1.12967 55.8407 1.06067 55.7967C1.06082 55.7144 1.05073 55.6307 1.02946 55.5472C1.01016 55.4715 1 55.3925 1 55.3118L1 52.809ZM0.971923 43.6187C0.973318 43.6242 0.974761 43.6296 0.976245 43.635C0.97235 43.631 0.968416 43.627 0.964444 43.623C0.966935 43.6216 0.969427 43.6201 0.971923 43.6187ZM37.0238 43.635C37.0252 43.6296 37.0267 43.6242 37.0281 43.6187C37.0306 43.6201 37.0331 43.6216 37.0356 43.623C37.0316 43.627 37.0277 43.631 37.0238 43.635ZM1.43109 12.7334L0.906644 13.5668L1.43109 12.7334C1.36513 12.6919 1.30547 12.6424 1.25292 12.5864C1.19436 12.5239 1.12968 12.4707 1.06067 12.4267C1.06082 12.3443 1.05073 12.2606 1.02946 12.1772C1.01016 12.1014 1 12.0225 1 11.9417L1 9.43893C1 8.88665 0.552285 8.43893 0 8.43893L0 5.43339C0.552285 5.43339 1 4.98568 1 4.43339L1 1.93062C1 1.7447 1.04744 1.58743 1.12201 1.45804C1.26103 1.21686 1.28822 0.941891 1.21973 0.693156C1.39703 0.877714 1.64474 0.994633 1.92083 1.00017C2.06416 1.00304 2.21648 1.04303 2.36891 1.13896L2.90152 0.292592L2.36892 1.13896L4.25604 2.32649C4.72347 2.62063 5.34086 2.48016 5.635 2.01272L7.71651 3.32257C7.42237 3.79001 7.56284 4.40739 8.03028 4.70154L11.8045 7.07659C12.272 7.37074 12.8893 7.23026 13.1835 6.76283L15.265 8.07268C14.9709 8.54012 15.1113 9.1575 15.5788 9.45165L17.4659 10.6392C17.6975 10.7849 17.945 10.895 18.2008 10.9691C18.4815 11.0503 18.7689 11.003 19 10.8619C19.2312 11.003 19.5185 11.0503 19.7992 10.9691C20.055 10.895 20.3025 10.7849 20.5341 10.6392L22.4212 9.45165C22.8887 9.1575 23.0292 8.54012 22.735 8.07268L24.8165 6.76283C25.1107 7.23026 25.728 7.37074 26.1955 7.07659L29.9697 4.70154C30.4372 4.40739 30.5776 3.79001 30.2835 3.32257L32.365 2.01272C32.6591 2.48015 33.2765 2.62063 33.744 2.32648L35.6311 1.13896C35.7835 1.04303 35.9358 1.00304 36.0792 1.00017C36.3553 0.994633 36.603 0.877713 36.7803 0.693154C36.7118 0.941889 36.739 1.21685 36.878 1.45804C36.9526 1.58743 37 1.7447 37 1.93062V4.43339C37 4.98568 37.4477 5.43339 38 5.43339V8.43893C37.4477 8.43893 37 8.88665 37 9.43893V11.9417C37 12.0225 36.9898 12.1014 36.9705 12.1772C36.9493 12.2606 36.9392 12.3443 36.9393 12.4267C36.8703 12.4707 36.8056 12.5239 36.7471 12.5864C36.6945 12.6424 36.6349 12.6919 36.5689 12.7334L35.1439 13.6301C34.6765 13.9242 34.536 14.5416 34.8301 15.0091L33.6729 15.7373C33.3787 15.2699 32.7613 15.1294 32.2939 15.4235L29.4439 17.217C28.9765 17.5111 28.836 18.1285 29.1301 18.596L27.9729 19.3242C27.6787 18.8568 27.0613 18.7163 26.5939 19.0104L23.7439 20.8039C23.2765 21.098 23.136 21.7154 23.4301 22.1828L22.2729 22.9111C21.9787 22.4437 21.3613 22.3032 20.8939 22.5973L19.4689 23.4941C19.3969 23.5393 19.321 23.573 19.2433 23.5955C19.1557 23.6208 19.0743 23.6571 19 23.7024C18.9257 23.6571 18.8443 23.6208 18.7567 23.5955C18.679 23.573 18.6031 23.5393 18.5311 23.4941L17.1061 22.5973C16.6387 22.3032 16.0213 22.4437 15.7271 22.9111L14.5699 22.1828C14.864 21.7154 14.7235 21.098 14.2561 20.8039L11.4061 19.0104C10.9387 18.7163 10.3213 18.8568 10.0271 19.3242L8.86985 18.596C9.164 18.1285 9.02352 17.5111 8.55609 17.217L5.70609 15.4235C5.23865 15.1294 4.62127 15.2699 4.32712 15.7373L3.16985 15.0091C3.464 14.5416 3.32352 13.9242 2.85609 13.6301L1.43109 12.7334ZM37.0238 0.264976C37.0252 0.259557 37.0267 0.25412 37.0281 0.248665C37.0306 0.250083 37.0331 0.251504 37.0356 0.252933C37.0316 0.256918 37.0277 0.260933 37.0238 0.264976ZM1.25292 34.2714C1.19436 34.2089 1.12968 34.1557 1.06067 34.1117C1.06082 34.0294 1.05073 33.9457 1.02946 33.8622C1.01016 33.7865 1 33.7075 1 33.6267V31.124C1 30.5717 0.552285 30.124 0 30.124L0 27.1184C0.552285 27.1184 1 26.6707 1 26.1184L1 23.6157C1 23.4297 1.04744 23.2725 1.12201 23.1431C1.26103 22.9019 1.28822 22.6269 1.21973 22.3782C1.39703 22.5627 1.64474 22.6797 1.92083 22.6852C2.06416 22.6881 2.21648 22.7281 2.36891 22.824L4.25604 24.0115C4.72347 24.3057 5.34086 24.1652 5.635 23.6977L7.71651 25.0076C7.42237 25.475 7.56284 26.0924 8.03028 26.3866L11.8045 28.7616C12.272 29.0558 12.8893 28.9153 13.1835 28.4479L15.265 29.7577C14.9709 30.2251 15.1113 30.8425 15.5788 31.1367L17.4659 32.3242C17.6975 32.4699 17.945 32.5801 18.2008 32.6541C18.4815 32.7353 18.7688 32.688 19 32.5469C19.2312 32.688 19.5185 32.7353 19.7992 32.6541C20.055 32.5801 20.3025 32.4699 20.5341 32.3242L22.4212 31.1367C22.8887 30.8425 23.0292 30.2251 22.735 29.7577L24.8165 28.4479C25.1107 28.9153 25.728 29.0558 26.1955 28.7616L29.9697 26.3866C30.4372 26.0924 30.5776 25.475 30.2835 25.0076L32.365 23.6977C32.6591 24.1652 33.2765 24.3057 33.744 24.0115L35.6311 22.824C35.7835 22.7281 35.9358 22.6881 36.0792 22.6852C36.3553 22.6797 36.603 22.5627 36.7803 22.3782C36.7118 22.6269 36.739 22.9019 36.878 23.1431C36.9526 23.2725 37 23.4297 37 23.6156V26.1184C37 26.6707 37.4477 27.1184 38 27.1184V30.124C37.4477 30.124 37 30.5717 37 31.124V33.6267C37 33.7075 36.9898 33.7865 36.9705 33.8622C36.9493 33.9457 36.9392 34.0294 36.9393 34.1117C36.8703 34.1557 36.8056 34.2089 36.7471 34.2714C36.6945 34.3274 36.6349 34.3769 36.5689 34.4184L35.1439 35.3151C34.6765 35.6093 34.536 36.2267 34.8301 36.6941L33.6729 37.4223C33.3787 36.9549 32.7613 36.8144 32.2939 37.1086L29.4439 38.902C28.9765 39.1962 28.836 39.8135 29.1301 40.281L27.9729 41.0092C27.6787 40.5418 27.0613 40.4013 26.5939 40.6955L23.7439 42.4889C23.2765 42.7831 23.136 43.4004 23.4301 43.8679L22.2729 44.5961C21.9787 44.1287 21.3613 43.9882 20.8939 44.2824L19.4689 45.1791C19.3969 45.2244 19.321 45.258 19.2433 45.2805C19.1557 45.3058 19.0743 45.3421 19 45.3874C18.9257 45.3421 18.8443 45.3058 18.7567 45.2805C18.679 45.258 18.6031 45.2244 18.5311 45.1791L17.1061 44.2824C16.6387 43.9882 16.0213 44.1287 15.7271 44.5961L14.5699 43.8679C14.864 43.4004 14.7235 42.7831 14.2561 42.4889L11.4061 40.6955C10.9387 40.4013 10.3213 40.5418 10.0271 41.0092L8.86985 40.281C9.164 39.8135 9.02352 39.1962 8.55609 38.902L5.70609 37.1086C5.23865 36.8144 4.62127 36.9549 4.32712 37.4223L3.16985 36.6941C3.464 36.2267 3.32352 35.6093 2.85609 35.3151L1.43109 34.4184C1.36513 34.3769 1.30547 34.3274 1.25292 34.2714ZM0.971924 21.9337C0.973318 21.9391 0.974761 21.9446 0.976245 21.95C0.97235 21.946 0.968417 21.9419 0.964445 21.938C0.966936 21.9365 0.969427 21.9351 0.971924 21.9337ZM37.0238 21.95C37.0252 21.9446 37.0267 21.9391 37.0281 21.9337C37.0306 21.9351 37.0331 21.9365 37.0356 21.938C37.0316 21.9419 37.0277 21.946 37.0238 21.95ZM0.97624 0.26497C0.972346 0.260928 0.968413 0.256916 0.964443 0.252933C0.966933 0.251504 0.969427 0.250081 0.971923 0.248663C0.973317 0.254116 0.974756 0.259552 0.97624 0.26497Z" stroke="white" stroke-width="2" stroke-linecap="round" stroke-dasharray="4 4"/>
<path d="M905.333 481.283C905.254 481.2 905.164 481.133 905.067 481.083C905.076 480.974 905.067 480.862 905.039 480.751C905.013 480.653 905 480.55 905 480.446V477.575C905 477.023 904.552 476.575 904 476.575V472.833C904.552 472.833 905 472.386 905 471.833V468.963C905 468.724 905.062 468.519 905.162 468.348C905.401 467.939 905.317 467.43 904.988 467.117C905.079 467.057 905.174 467.004 905.272 466.958C905.367 467.401 905.756 467.738 906.229 467.748C906.425 467.752 906.63 467.807 906.831 467.932L908.287 468.84C908.756 469.133 909.373 468.989 909.665 468.521L910.881 469.279C910.589 469.748 910.732 470.364 911.201 470.657L914.114 472.473C914.583 472.765 915.2 472.622 915.492 472.153L916.708 472.911C916.416 473.38 916.559 473.997 917.028 474.289L919.941 476.105C920.41 476.397 921.027 476.254 921.319 475.786L922.535 476.544C922.243 477.012 922.386 477.629 922.855 477.921L924.311 478.83C924.567 478.989 924.84 479.109 925.122 479.19C925.436 479.28 925.758 479.209 926 479.026C926.242 479.209 926.564 479.28 926.878 479.19C927.16 479.109 927.433 478.989 927.689 478.83L929.145 477.921C929.614 477.629 929.757 477.012 929.465 476.544L930.681 475.786C930.973 476.254 931.59 476.397 932.059 476.105L934.972 474.289C935.441 473.997 935.584 473.38 935.292 472.911L936.508 472.153C936.8 472.622 937.417 472.765 937.886 472.473L940.799 470.657C941.268 470.364 941.411 469.748 941.119 469.279L942.335 468.521C942.627 468.989 943.244 469.133 943.713 468.84L945.169 467.932C945.37 467.807 945.575 467.752 945.771 467.748C946.244 467.738 946.633 467.401 946.728 466.958C946.826 467.004 946.921 467.057 947.012 467.117C946.683 467.43 946.599 467.939 946.838 468.348C946.938 468.519 947 468.724 947 468.963V471.833C947 472.386 947.448 472.833 948 472.833V476.575C947.448 476.575 947 477.023 947 477.575V480.446C947 480.55 946.987 480.653 946.961 480.751C946.933 480.862 946.924 480.974 946.933 481.083C946.836 481.133 946.746 481.2 946.667 481.283C946.598 481.356 946.518 481.421 946.431 481.476L944.781 482.505C944.312 482.797 944.169 483.414 944.461 483.882L942.858 484.882C942.566 484.413 941.949 484.27 941.481 484.562L938.181 486.619C937.712 486.911 937.569 487.528 937.861 487.997L936.258 488.996C935.966 488.527 935.349 488.384 934.881 488.676L931.581 490.734C931.112 491.026 930.969 491.642 931.261 492.111L929.658 493.11C929.366 492.642 928.749 492.499 928.281 492.791L926.631 493.819C926.535 493.879 926.433 493.924 926.328 493.954C926.206 493.989 926.096 494.045 926 494.117C925.904 494.045 925.794 493.989 925.672 493.954C925.567 493.924 925.465 493.879 925.369 493.819L923.719 492.791C923.251 492.499 922.634 492.642 922.342 493.11L920.739 492.111C921.031 491.642 920.888 491.026 920.419 490.734L917.119 488.676C916.651 488.384 916.034 488.527 915.742 488.996L914.139 487.997C914.431 487.528 914.288 486.911 913.819 486.619L910.519 484.562C910.051 484.27 909.434 484.413 909.142 484.882L907.539 483.882C907.831 483.414 907.688 482.797 907.219 482.505L905.569 481.476C905.482 481.421 905.402 481.356 905.333 481.283ZM906.831 418.184L907.344 417.36L906.831 418.184L908.287 419.092C908.756 419.385 909.373 419.241 909.665 418.773L910.881 419.531C910.589 420 910.732 420.616 911.201 420.909L914.114 422.725C914.583 423.017 915.2 422.874 915.492 422.405L916.708 423.163C916.416 423.632 916.559 424.249 917.028 424.541L919.941 426.357C920.41 426.649 921.027 426.506 921.319 426.038L922.535 426.796C922.243 427.264 922.386 427.881 922.855 428.173L924.311 429.082C924.567 429.241 924.84 429.361 925.122 429.442C925.436 429.532 925.758 429.461 926 429.278C926.242 429.461 926.564 429.532 926.878 429.442C927.16 429.361 927.433 429.241 927.689 429.082L929.145 428.173C929.614 427.881 929.757 427.264 929.465 426.796L930.681 426.038C930.973 426.506 931.59 426.649 932.059 426.357L934.972 424.541C935.441 424.249 935.584 423.632 935.292 423.163L936.508 422.405C936.8 422.874 937.417 423.017 937.886 422.725L940.799 420.909C941.268 420.616 941.411 420 941.119 419.531L942.335 418.773C942.627 419.241 943.244 419.385 943.713 419.092L945.169 418.184L944.64 417.336L945.169 418.184C945.37 418.059 945.575 418.004 945.771 418C946.244 417.99 946.633 417.653 946.728 417.21C946.826 417.256 946.921 417.309 947.012 417.369C946.683 417.682 946.599 418.191 946.838 418.6C946.938 418.771 947 418.976 947 419.215V422.085C947 422.638 947.448 423.085 948 423.085V426.827C947.448 426.827 947 427.275 947 427.827V430.698C947 430.802 946.987 430.905 946.961 431.003C946.933 431.114 946.924 431.226 946.933 431.335C946.836 431.385 946.746 431.452 946.667 431.535C946.598 431.608 946.518 431.673 946.431 431.728L946.96 432.577L946.431 431.728L944.781 432.757C944.312 433.049 944.169 433.666 944.461 434.134L942.858 435.134C942.566 434.665 941.949 434.522 941.481 434.814L938.181 436.871C937.712 437.163 937.569 437.78 937.861 438.249L936.258 439.248C935.966 438.779 935.349 438.636 934.881 438.928L931.581 440.985C931.112 441.278 930.969 441.894 931.261 442.363L929.658 443.362C929.366 442.894 928.749 442.751 928.281 443.043L926.631 444.071C926.535 444.131 926.433 444.176 926.328 444.206C926.206 444.241 926.096 444.297 926 444.369C925.904 444.297 925.794 444.241 925.672 444.206C925.567 444.176 925.465 444.131 925.369 444.071L923.719 443.043C923.251 442.751 922.634 442.894 922.342 443.362L920.739 442.363C921.031 441.894 920.888 441.278 920.419 440.985L917.119 438.928C916.651 438.636 916.034 438.779 915.742 439.248L914.139 438.249C914.431 437.78 914.288 437.163 913.819 436.871L910.519 434.814C910.051 434.522 909.434 434.665 909.142 435.134L907.539 434.134C907.831 433.666 907.688 433.049 907.219 432.757L905.569 431.728C905.482 431.673 905.402 431.608 905.333 431.535C905.254 431.452 905.164 431.385 905.067 431.335C905.076 431.226 905.067 431.114 905.039 431.003C905.013 430.905 905 430.802 905 430.698V427.827C905 427.275 904.552 426.827 904 426.827V423.085C904.552 423.085 905 422.638 905 422.085V419.215C905 418.976 905.062 418.771 905.162 418.6C905.401 418.191 905.317 417.682 904.988 417.369C905.079 417.309 905.174 417.256 905.272 417.21C905.367 417.653 905.756 417.99 906.229 418C906.425 418.004 906.63 418.059 906.831 418.184ZM905.333 456.409C905.254 456.326 905.164 456.259 905.067 456.209C905.076 456.1 905.067 455.988 905.039 455.877C905.013 455.779 905 455.676 905 455.572L905 452.701C905 452.149 904.552 451.701 904 451.701V447.959C904.552 447.959 905 447.512 905 446.959L905 444.089C905 443.85 905.062 443.645 905.162 443.474C905.401 443.065 905.317 442.556 904.988 442.243C905.079 442.183 905.174 442.13 905.272 442.084C905.367 442.527 905.756 442.864 906.229 442.874C906.425 442.878 906.63 442.933 906.831 443.058L908.287 443.966C908.756 444.259 909.373 444.115 909.665 443.647L910.881 444.405C910.589 444.874 910.732 445.49 911.201 445.783L914.114 447.599C914.583 447.891 915.2 447.748 915.492 447.279L916.708 448.037C916.416 448.506 916.559 449.123 917.028 449.415L919.941 451.231C920.41 451.523 921.027 451.38 921.319 450.912L922.535 451.67C922.243 452.138 922.386 452.755 922.855 453.047L924.311 453.956C924.567 454.115 924.84 454.235 925.122 454.316C925.436 454.406 925.758 454.335 926 454.152C926.242 454.335 926.564 454.406 926.878 454.316C927.16 454.235 927.433 454.115 927.689 453.956L929.145 453.047C929.614 452.755 929.757 452.138 929.465 451.67L930.681 450.912C930.973 451.38 931.59 451.523 932.059 451.231L934.972 449.415C935.441 449.123 935.584 448.506 935.292 448.037L936.508 447.279C936.8 447.748 937.417 447.891 937.886 447.599L940.799 445.783C941.268 445.49 941.411 444.874 941.119 444.405L942.335 443.647C942.627 444.115 943.244 444.259 943.713 443.966L945.169 443.058C945.37 442.933 945.575 442.878 945.771 442.874C946.244 442.864 946.633 442.527 946.728 442.084C946.826 442.13 946.921 442.183 947.012 442.243C946.683 442.556 946.599 443.065 946.838 443.474C946.938 443.645 947 443.85 947 444.089V446.959C947 447.512 947.448 447.959 948 447.959V451.701C947.448 451.701 947 452.149 947 452.701V455.572C947 455.676 946.987 455.779 946.961 455.877C946.933 455.988 946.924 456.1 946.933 456.209C946.836 456.259 946.746 456.326 946.667 456.409C946.598 456.482 946.518 456.547 946.431 456.602L944.781 457.631C944.312 457.923 944.169 458.54 944.461 459.008L942.858 460.008C942.566 459.539 941.949 459.396 941.481 459.688L938.181 461.745C937.712 462.037 937.569 462.654 937.861 463.123L936.258 464.122C935.966 463.653 935.349 463.51 934.881 463.802L931.581 465.859C931.112 466.152 930.969 466.768 931.261 467.237L929.658 468.236C929.366 467.768 928.749 467.625 928.281 467.917L926.631 468.945C926.535 469.005 926.433 469.05 926.328 469.08C926.206 469.115 926.096 469.171 926 469.243C925.904 469.171 925.794 469.115 925.672 469.08C925.567 469.05 925.465 469.005 925.369 468.945L923.719 467.917C923.251 467.625 922.634 467.768 922.342 468.236L920.739 467.237C921.031 466.768 920.888 466.152 920.419 465.859L917.119 463.802C916.651 463.51 916.034 463.653 915.742 464.122L914.139 463.123C914.431 462.654 914.288 462.037 913.819 461.745L910.519 459.688C910.051 459.396 909.434 459.539 909.142 460.008L907.539 459.008C907.831 458.54 907.688 457.923 907.219 457.631L905.569 456.602C905.482 456.547 905.402 456.482 905.333 456.409Z" stroke="white" stroke-width="2" stroke-linecap="round" stroke-dasharray="4 4"/>
<path d="M85 102V87.6344L66 75.8276L47 87.6344L47 102L66 90.1932L85 102Z" fill="white"/>
<path d="M85 66.2206V80.5862L66 68.7794L47 80.5862L47 66.2206L66 54.4138L85 66.2206Z" fill="white"/>
<path d="M85 44.8068V59.1724L66 47.3656L47 59.1724L47 44.8068L66 33L85 44.8068Z" fill="white"/>
<path d="M1002 534V517.552L980 504.034L958 517.552L958 534L980 520.482L1002 534Z" fill="white"/>
<path d="M1002 493.035V509.483L980 495.965L958 509.483L958 493.035L980 479.517L1002 493.035Z" fill="white"/>
<path d="M1002 468.518V484.966L980 471.448L958 484.966L958 468.518L980 455L1002 468.518Z" fill="white"/>
</svg>
