<svg width="53" height="58" viewBox="0 0 53 58" fill="none" xmlns="http://www.w3.org/2000/svg">
  <g id="24/software/database">
    <path id="icon" fill-rule="evenodd" clip-rule="evenodd" d="M11.0417 27.3023L11.0417 27.3016C11.0417 25.6962 17.8903 23.4657 26.5 23.4657C35.1097 23.4657 41.9583 25.6962 41.9583 27.3016L41.9583 27.3037C41.9524 28.9089 35.106 31.1375 26.5 31.1375C17.8916 31.1375 11.0438 28.9077 11.0417 27.3023ZM46.375 38.8094V27.3016C46.375 22.5514 37.4044 19.6298 26.5 19.6298C15.5956 19.6298 6.625 22.5514 6.625 27.3016V38.8094V50.3172C6.625 55.0674 15.5956 57.989 26.5 57.989C37.4044 57.989 46.375 55.0674 46.375 50.3172V38.8094ZM41.9583 38.8094V32.3282C38.3026 34.0242 32.7154 34.9735 26.5 34.9735C20.2846 34.9735 14.6974 34.0242 11.0417 32.3282V38.8094C11.0417 40.4148 17.8903 42.6453 26.5 42.6453C35.1097 42.6453 41.9583 40.4148 41.9583 38.8094ZM11.0417 43.836C14.6974 45.532 20.2846 46.4812 26.5 46.4812C32.7154 46.4812 38.3026 45.532 41.9583 43.836V50.3172C41.9583 51.9226 35.1097 54.1531 26.5 54.1531C17.8903 54.1531 11.0417 51.9226 11.0417 50.3172V43.836Z" fill="#272D67"/>
  </g>
</svg>
