<svg width="51" height="46" viewBox="0 0 51 46" fill="none" xmlns="http://www.w3.org/2000/svg">
<path fill-rule="evenodd" clip-rule="evenodd" d="M27.7917 8.58629C27.0432 8.48922 26.2781 8.439 25.5 8.439C24.7219 8.439 23.9568 8.48922 23.2083 8.58629V0.220982C23.9631 0.159312 24.7275 0.127808 25.5 0.127808C26.2725 0.127808 27.0369 0.159312 27.7917 0.220982V8.58629ZM14.0417 22.9836C14.0417 28.7213 19.1717 33.3726 25.5 33.3726C31.8283 33.3726 36.9583 28.7213 36.9583 22.9836C36.9583 17.2459 31.8283 12.5946 25.5 12.5946C19.1717 12.5946 14.0417 17.2459 14.0417 22.9836ZM32.375 22.9836C32.375 26.4262 29.2969 29.217 25.5 29.217C21.703 29.217 18.625 26.4262 18.625 22.9836C18.625 19.541 21.703 16.7502 25.5 16.7502C29.2969 16.7502 32.375 19.541 32.375 22.9836ZM27.7917 45.7462V37.3809C27.0432 37.4779 26.2781 37.5282 25.5 37.5282C24.7219 37.5282 23.9568 37.4779 23.2083 37.3809V45.7462C23.9631 45.8078 24.7275 45.8394 25.5 45.8394C26.2725 45.8394 27.0369 45.8078 27.7917 45.7462ZM41.3792 20.9058H50.6056C50.6736 21.5901 50.7083 22.2832 50.7083 22.9836C50.7083 23.684 50.6736 24.377 50.6056 25.0614H41.3792C41.4863 24.3828 41.5417 23.689 41.5417 22.9836C41.5417 22.2781 41.4863 21.5844 41.3792 20.9058ZM9.45832 22.9836C9.45832 22.2781 9.51372 21.5844 9.62078 20.9058H0.394422C0.326404 21.5901 0.291656 22.2832 0.291656 22.9836C0.291656 23.684 0.326404 24.377 0.394422 25.0614H9.62078C9.51372 24.3828 9.45832 23.689 9.45832 22.9836ZM35.107 11.3346L41.6312 5.4194C42.8069 6.30802 43.892 7.29185 44.8721 8.35785L38.348 14.2731C37.4278 13.1592 36.3356 12.1689 35.107 11.3346ZM6.12791 8.35785L12.652 14.2731C13.5722 13.1592 14.6644 12.1689 15.8929 11.3346L9.36882 5.4194C8.1931 6.30802 7.108 7.29185 6.12791 8.35785ZM38.348 31.6941L44.8721 37.6093C43.892 38.6753 42.8069 39.6591 41.6312 40.5478L35.107 34.6325C36.3356 33.7983 37.4278 32.808 38.348 31.6941ZM9.36882 40.5478L15.8929 34.6325C14.6644 33.7983 13.5722 32.808 12.652 31.6941L6.12791 37.6093C7.108 38.6753 8.1931 39.6591 9.36882 40.5478Z" fill="#272D67"/>
</svg>
