<svg width="46" height="45" viewBox="0 0 46 45" fill="none" xmlns="http://www.w3.org/2000/svg">
  <g id="24/basic/user">
    <path id="icon" fill-rule="evenodd" clip-rule="evenodd" d="M23 42.4588C11.356 42.4588 1.91666 33.4067 1.91666 22.2403C1.91666 11.0739 11.356 2.02173 23 2.02173C34.644 2.02173 44.0833 11.0739 44.0833 22.2403C44.0833 33.4067 34.644 42.4588 23 42.4588ZM37.1824 31.6596C39.1165 28.9865 40.25 25.7403 40.25 22.2403C40.25 13.1041 32.5269 5.69782 23 5.69782C13.4731 5.69782 5.74999 13.1041 5.74999 22.2403C5.74999 25.7403 6.88347 28.9865 8.81762 31.6596C10.9741 28.9279 16.0409 27.755 22.9944 27.7544C18.7054 27.7519 15.3333 24.8611 15.3333 18.5642C15.3333 14.4391 18.3599 11.212 23 11.212C27.6272 11.212 30.6667 14.7439 30.6667 18.9318C30.6667 24.9569 27.2547 27.7517 23.0062 27.7544C29.9594 27.7551 35.0259 28.928 37.1824 31.6596ZM34.4323 34.6283C33.8713 32.6939 29.8413 31.4305 23 31.4305C16.1587 31.4305 12.1287 32.6939 11.5677 34.6283C14.6113 37.2133 18.6145 38.7827 23 38.7827C27.3854 38.7827 31.3887 37.2133 34.4323 34.6283ZM19.1667 18.5642C19.1667 22.7352 20.7349 24.0783 23 24.0783C25.2573 24.0783 26.8333 22.7887 26.8333 18.9318C26.8333 16.635 25.33 14.8881 23 14.8881C20.573 14.8881 19.1667 16.3876 19.1667 18.5642Z" fill="#272D67"/>
  </g>
</svg>
